<?xml version="1.0" encoding="UTF-8"?><svg id="Layer_2" xmlns="http://www.w3.org/2000/svg" viewBox="0 0 571.4363 281.7051"><g id="Components"><g id="_x33_1d5783a-257d-4cc8-829f-937878ea3202_x40_1"><polygon points="0 95.4884 0 195.5994 23.897 195.5994 23.897 156.7134 62.639 156.7134 62.639 136.7774 23.897 136.7774 23.897 116.1344 65.892 116.1344 65.892 95.4884 0 95.4884" style="fill:#090506;"/><path d="M138.5967,126.1735c0-2.356-.5-4.266-1.494-5.728-.994-1.459-2.273-2.59-3.836-3.392-1.564-.802-3.315-1.345-5.257-1.626-1.943-.284-3.814-.426-5.612-.426h-12.929v23.33h11.508c1.988,0,4.025-.161,6.111-.493,2.084-.328,3.977-.919,5.682-1.768,1.706-.849,3.102-2.072,4.193-3.676,1.088-1.601,1.634-3.676,1.634-6.221M139.5867,195.5995l-21.736-39.732h-8.24v39.732h-23.614v-100.111h38.177c4.808,0,9.496.496,14.069,1.484,4.572.992,8.672,2.665,12.302,5.021,3.627,2.359,6.526,5.47,8.696,9.332,2.167,3.868,3.252,8.674,3.252,14.422,0,6.789-1.838,12.492-5.515,17.109-3.676,4.62-8.767,7.92-15.27,9.9l26.158,42.843h-28.279Z" style="fill:#090506;"/><polygon points="409.4373 195.5995 409.4373 95.4885 476.7423 95.4885 476.7423 115.8505 432.7683 115.8505 432.7683 134.7975 474.3393 134.7975 474.3393 154.1685 432.7683 154.1685 432.7683 174.9535 479.2883 174.9535 479.2883 195.5995 409.4373 195.5995" style="fill:#090506;"/><polygon points="501.5853 95.4884 501.5853 195.5994 571.4363 195.5994 571.4363 174.9534 524.9163 174.9534 524.9163 154.1684 566.4873 154.1684 566.4873 134.7974 524.9163 134.7974 524.9163 115.8514 568.8903 115.8514 568.8903 95.4884 501.5853 95.4884" style="fill:#090506;"/><path d="M388.0913,126.0797c-6.731-112.077-156.654-138.671-201.484-35.238-4.24,10.314-6.874,21.675-7.565,33.225-.004,1.259-.318,2.597.213,3.186,21.328-.001,170.299.061,208.45.025.446-.087.305-.384.385-1.106l.001-.092Z" style="fill:#ffcb05;"/><path d="M373.0657,184.3719c2.095-3.372,5.978-10.522,7.268-14.479-8.019-.181-186.646-1.631-193.013.499,1.338,3.567,5.166,11.045,7.179,14.055.185.307.502.715.823.779,36.193.018,101.752.005,140.792.009,19.478-.002,33.712.003,36.041-.003.419-.066.456-.27.859-.785l.051-.075Z" style="fill:#ffcb05;"/><path d="M179.812,139.0113c.415,5.575,1.397,11.34,2.746,16.72.23.722.343,1.737.852,1.912,8.384.009,192.305.009,200.689,0,.186-.018.332-.195.533-.798.242-.901.617-2.163.818-3.189,1.076-4.245,1.961-10.659,2.242-14.645.021-.258.002-.516-.025-.73-.022-.181-.101-.283-.263-.29-38.136.009-124.281-.009-167.768-.001-21.64,0-37.202-.002-39.555.001-.363.074-.234.31-.272.932l.003.088Z" style="fill:#ffcb05;"/><polygon points="196.1702 204.2477 202.4352 158.3927 222.3972 141.6027 225.5872 117.0987 241.9752 113.2627 244.4822 84.9807 259.0202 88.3047 259.9142 69.3737 273.9812 62.6547 274.1002 41.2537 306.7532 56.4227 307.2142 66.2917 320.7922 62.3937 324.4512 103.7047 340.6932 109.4507 342.8572 126.0797 357.6572 131.1997 369.0782 205.0947 196.1702 204.2477" style="fill:#e7e7e7;"/><polygon points="336.6729 129.2045 335.3559 112.5635 318.9989 106.5755 315.5189 69.5005 301.0549 73.0875 307.4869 202.2695 337.4139 202.2695 328.9029 127.6215 336.4729 130.2235 336.6729 129.2045" style="fill:#949598;"/><polygon points="264.7852 94.8229 259.5642 201.0219 230.2752 201.0219 237.6392 136.4409 229.0382 143.1739 227.9542 143.6719 231.0382 120.9219 247.5952 117.0639 250.0872 90.4949 264.7882 94.8199 264.7852 94.8229" style="fill:#949598;"/><path d="M346.274,199.9063c-.734-3.227-9.152-67.621-9.66-70.355-.07-.18-.701-.384-1.046-.506-1.617-.526-4.721-1.677-6.717-2.3-.407-.128-.81.2-.773.626,1.477,16.689,8.176,71.169,8.118,72.461-6.408.296-19.248.044-26.914.096-.764.004-1.404-.568-1.481-1.329-1.323-13.002-5.63-110.519-6.695-124.234-1.654.212-4.409,1.257-6.072,1.651-.488.205-1.146.236-1.069.726.127,4.004,1.529,45.671,1.619,48.77-.021.401-.545.048-.819.002-2.344-.887-10.379-3.488-12.649-4.503-.547-.524-.351-1.044-.411-2.032-.003-1.166.002-2.855-.003-3.959-.007-.872-.033-1.365-.28-1.439-1.649.394-7.288,3.881-9.055,4.663-.372.197-.752.342-.702-.227.063-2.658.695-18.343.706-20.512-.12-.562-.484-.528-1.168-.742-1.289-.311-4.766-1.1-6.083-1.366-.632-.155-.273.436-.418,1.218-.7,10.99-4.438,88.842-5.388,101.625-.071.958-.859,1.695-1.821,1.701-7.696.047-24.431-.024-26.438-.005-.215-.013-.267-.042-.251-.247.364-3.323,6.232-54.495,7.172-63.017.047-.432-.449-.702-.787-.429-1.899,1.531-6.248,5.137-7.853,6.478-.947.792-.819.569-.673-.581.821-5.766,1.835-13.749,2.688-19.833.19-1.334.044-1.266,1.505-1.603,4.275-.999,9.503-2.212,13.65-3.181.738-.231,1.31-.106,1.376-.849.221-2.446,1.745-18.622,2.296-24.272.071-.492.452-.302,1.948.02,3.39.769,8.679,1.98,12.002,2.719.463.077.609.094.66-.321.135-2.112.918-17.534,1.089-20.632-.001-.612.181-.854.704-1.093,1.699-.823,8.834-4.201,11.787-5.608.946-.48,1.701-.598,1.602-1.707.03-2.153.103-9.47.138-12.588.027-1.319-.042-1.735.387-1.582,1.658.743,12.978,5.964,17.984,8.283,1.443.761,2.073.457,2.027,2.359.117,2.219.239,4.555.357,6.799.047.912.093,1.78.132,2.521.15,1.55-.074,2.343.439,2.523,2.69-.487,8.991-2.588,11.543-3.213.874-.248,1.376-.407,1.596-.399.129.004.183.061.214.179.262,2.394,3.075,32.736,3.422,36.294.136.763.396.534,2.033,1.186,3.173,1.124,7.221,2.539,10.519,3.705.799.278,1.5.53,2.254.793,1.526.53,1.383.411,1.626,2.164.694,4.427,1.232,10.224,2.032,14.4.113.239.369.327.629.431,2.036.712,11.072,3.81,14.791,5.092,1.192.487,1.655.383,1.916.865.567,3.49,10.031,56.374,11.353,64.103.033.239-.119.222-.351.241-1.976-.079-16.521.105-18.709-.022l-.028-.008ZM228.547,143.4533c-1.523,11.46-7.443,55.007-7.631,56.294-.027.081-.074.117-.212.134-.235.026-.843.012-1.836.016-3.877-.009-11.27.006-15.648,0-1.244-.015-1.564.063-1.528-.205.616-2.516,6.15-36.793,7.283-39.947,4.865-4.048,17.989-15.043,19.566-16.294l.006.002ZM360.802,129.6603c-4.675-1.636-10.835-3.784-15.731-5.468-1.467-.502-1.279-.325-1.522-2.109-.363-2.805-.75-5.758-1.118-8.591-.327-1.956-.415-4.714-.939-6.072-.476-.475-1.66-.576-3.51-1.346-3.951-1.405-8.83-3.093-12.05-4.291-.733-2.12-2.99-32.851-3.798-40.349-.069-.652-.045-1.013-.168-1.458-.136-.102-.326-.055-.544.006-1.579.435-9.649,2.78-11.828,3.389-.65.248-.829-.029-.885-.62-.098-1.209-.232-4.814-.317-6.305-.096-.827.044-1.038-.405-1.302-3.093-1.428-34.395-16.024-35.832-16.637-.181.002-.124.228-.146.408-.016,2.598-.09,15.627-.122,21.435-.035.578.133,1.053-.418,1.316-1.136.582-7.567,3.624-10.996,5.274-.869.557-2.384.95-2.336,1.357-.297,2.233-.672,14.959-.877,16.74-.106.421-.348.309-.818.23-1.945-.385-4.502-1.066-6.786-1.548-1.593-.364-3.148-.72-4.313-.986-1.455-.291-2.089-.641-2.259-.076-.942,8.145-1.613,18.32-2.41,26.411-.194.969.198,1.929-.906,2.073-2.158.534-10.312,2.4-13.885,3.255-1.269.31-1.439.262-1.515.863-.703,5.655-1.784,13.49-2.536,19.477-.173,1.262-.31,2.426-.472,3.63-.182,1.376-.034,1.029-1.205,2.042-1.249,1.063-2.47,2.071-3.781,3.182-4.622,3.885-10.245,8.613-14.626,12.323-.88,2.282-8.055,38.532-10.709,50.696,5.337,7.551,18.614,26.395,21.214,29.438,4.927,2.11,10.732,4.592,15.789,6.74,1.234.532,1.209.413,1.754,1.831.73,1.877,1.498,3.848,2.236,5.744.556,1.438,1.203,3.426,1.835,4.292,2.742.725,9.636,1.201,11.61,1.563.446.055.786.171.942.62.817,2.788,2.513,9.186,3.029,10.959.146.456.357.71.889.788,3.092.791,13.732,3.004,18.341,4.513,1.196,1.408,4.573,5.466,6.316,7.627.798.935.865,1.131,1.569.882,1.94-.712,10.224-3.803,14.277-5.309,1.397-.459,2.18-.997,3.559-.96,2.32-.219,7.588-.08,9.706-.404,1.946-1.609,13.707-15.952,18.448-21.168.311-.36.499-.493.965-.532,1.907-.26,11.373-1.519,15.936-2.13,1.241-.296,2.39.077,3.001-.914.791-1.358,4.259-7.586,5.319-9.451.281-.522.566-.909,1.097-1.175,2.052-1.227,9.516-5.08,12.487-6.82,2.016-2.626,9.228-17.507,12.764-23.667.693-1.513,1.151-1.855,1.238-2.51-.639-2.783-13.634-73.578-14.532-76.891l-.026-.015Z" style="fill:#090506;"/><path d="M294.6416,161.3556c-2.412.172-6.21,1.519-8.805,1.61-.388-.047-.528-.25-.544-.65.019-.975.404-3.271.757-6.108.694-5.47,1.697-12.239,2.297-17.55-1.287,1.7-11.42,22.172-15.318,29.469-.398.932-1.653,2.711-.889,2.64,1.553.005,5.349-1.103,6.787-1.249.434-.074,1.146-.094,1.236.24-.284,4.712-3.625,23.408-4.095,27.673-.011.168.011.207.074.131.575-.972,1.055-1.987,1.813-3.406,3.99-7.621,9.14-17.46,13.134-25.088,1.883-3.628,3.383-6.397,3.807-7.327.077-.216.064-.353-.194-.381l-.06-.004Z" style="fill:#ffcb05;"/><polygon points="236.4294 226.9642 236.5364 213.5322 236.4564 213.5322 231.5224 226.9642 228.3054 226.9642 223.5064 213.5322 223.4264 213.5322 223.5334 226.9642 219.2174 226.9642 219.2174 207.9822 225.7404 207.9822 230.0624 220.1542 230.1694 220.1542 234.3034 207.9822 240.9334 207.9822 240.9334 226.9642 236.4294 226.9642" style="fill:#e7e7e7;"/><path d="M253.491,213.0492l-2.413,6.515h4.772l-2.359-6.515ZM258.585,226.9642l-1.475-3.727h-7.346l-1.394,3.727h-4.987l7.963-18.982h4.451l7.882,18.982h-5.094Z" style="fill:#e7e7e7;"/><path d="M279.0927,217.4195c0-1.072-.174-1.962-.522-2.668-.35-.706-.814-1.268-1.395-1.689-.581-.42-1.242-.719-1.983-.898-.742-.178-1.506-.268-2.293-.268h-2.28v11.099h2.173c.821,0,1.612-.093,2.372-.281.76-.188,1.43-.495,2.011-.924.581-.429,1.045-1.001,1.395-1.717.348-.714.522-1.599.522-2.654h0ZM283.8657,217.4195c0,1.663-.309,3.097-.926,4.302-.615,1.208-1.43,2.199-2.439,2.977-1.01.777-2.15,1.35-3.419,1.716-1.269.367-2.556.55-3.861.55h-7.077v-18.982h6.863c1.341,0,2.664.156,3.968.469,1.305.313,2.467.831,3.486,1.555,1.019.724,1.84,1.693,2.467,2.909.625,1.215.938,2.716.938,4.504h0Z" style="fill:#e7e7e7;"/><polygon points="287.5657 226.9642 287.5657 207.9822 300.3257 207.9822 300.3257 211.8432 291.9887 211.8432 291.9887 215.4352 299.8707 215.4352 299.8707 219.1082 291.9887 219.1082 291.9887 223.0502 300.8097 223.0502 300.8097 226.9642 287.5657 226.9642" style="fill:#e7e7e7;"/><rect x="304.786" y="207.9827" width="4.611" height="18.982" style="fill:#e7e7e7;"/><path d="M324.0495,213.7992c0-.445-.095-.807-.284-1.084-.188-.277-.431-.492-.727-.645-.297-.152-.628-.255-.997-.308-.368-.054-.722-.08-1.064-.08h-2.452v4.423h2.182c.377,0,.764-.031,1.16-.093.394-.063.754-.174,1.076-.336.325-.16.589-.392.795-.696.208-.304.311-.698.311-1.181h0ZM324.2375,226.9642l-4.122-7.534h-1.563v7.534h-4.477v-18.982h7.239c.911,0,1.8.093,2.668.281.866.188,1.645.506,2.332.953.688.446,1.238,1.036,1.649,1.769.41.733.617,1.645.617,2.735,0,1.286-.349,2.368-1.046,3.244-.698.876-1.663,1.501-2.896,1.876l4.961,8.124h-5.362Z" style="fill:#e7e7e7;"/><path d="M341.3503,213.0492l-2.413,6.515h4.772l-2.359-6.515ZM346.4443,226.9642l-1.475-3.727h-7.346l-1.394,3.727h-4.987l7.963-18.982h4.451l7.882,18.982h-5.094Z" style="fill:#e7e7e7;"/><polygon points="166.5916 77.5013 168.6176 78.4123 169.6786 76.0523 171.5926 76.9123 170.5376 79.2603 174.4756 81.0313 173.4576 83.2933 163.5686 78.8453 165.7366 74.0273 167.7486 74.9313 166.5916 77.5013" style="fill:#090506;"/><path d="M174.2244,69.3908c-.413-.223-.815-.398-1.203-.528-.39-.128-.746-.203-1.072-.223-.327-.019-.613.021-.858.122-.245.098-.433.27-.564.512-.13.242-.172.496-.124.76.049.265.172.528.367.79.195.262.453.518.777.768.323.25.692.486,1.104.71.413.223.816.403,1.206.538.391.136.75.214,1.076.234.326.019.615-.022.867-.124.252-.102.443-.274.574-.517.132-.242.17-.494.114-.756-.056-.263-.181-.525-.376-.787-.195-.261-.455-.521-.781-.778-.324-.257-.695-.497-1.107-.721M175.4174,67.1808c.755.408,1.398.866,1.93,1.375.532.508.933,1.037,1.205,1.59.27.552.403,1.12.4,1.705-.002.585-.157,1.16-.462,1.726-.306.566-.703,1.01-1.19,1.332-.487.323-1.036.522-1.646.599-.61.078-1.274.032-1.99-.135-.717-.166-1.452-.454-2.206-.861-.755-.408-1.396-.86-1.921-1.36-.526-.499-.921-1.022-1.187-1.572-.266-.55-.396-1.116-.389-1.699.009-.582.167-1.16.478-1.735.305-.567.7-1.012,1.183-1.337.484-.324,1.028-.526,1.632-.605.606-.079,1.263-.038,1.97.124.708.161,1.439.447,2.193.853M168.1804,67.4318l-.785,1.455-1.286-2.261.946-1.752,1.125,2.558Z" style="fill:#090506;"/><path d="M177.4477,60.269c-.231-.149-.44-.239-.628-.268-.186-.031-.356-.023-.509.025-.152.047-.283.124-.394.228-.111.106-.205.217-.282.337l-.416.643,2.3,1.49.391-.604c.19-.291.262-.606.219-.944-.042-.337-.269-.639-.681-.907M183.7747,64.193l-4.412-1.131-.39.603,3.624,2.347-1.281,1.979-9.102-5.892,1.885-2.911c.57-.882,1.243-1.416,2.017-1.607.774-.191,1.615.008,2.524.596.334.215.609.449.824.697.216.249.379.497.488.742.108.247.172.486.192.717.021.232.01.436-.032.614l5.065,1.079-1.402,2.167Z" style="fill:#090506;"/><path d="M188.5957,53.6251c.332.425.561.873.689,1.344.13.47.141.96.034,1.47-.106.509-.361,1.029-.763,1.557-.403.527-.833.905-1.29,1.134-.458.229-.928.341-1.414.337-.485-.004-.972-.113-1.463-.327-.492-.214-.978-.505-1.457-.87l-5.428-4.144,1.495-1.96,5.259,4.014c.244.185.482.345.714.477.232.133.452.22.658.261.206.042.4.036.582-.018.183-.053.349-.177.496-.372.149-.195.226-.387.229-.578.004-.189-.042-.378-.136-.565-.094-.188-.236-.376-.426-.567-.189-.189-.406-.376-.648-.562l-5.26-4.015,1.487-1.947,5.429,4.143c.479.366.883.762,1.213,1.188" style="fill:#090506;"/><polygon points="197.1206 47.5043 191.7046 42.3983 191.6626 42.4433 195.9076 48.8243 194.7356 50.0973 188.0656 46.3543 188.0336 46.3893 193.5646 51.3703 192.0606 53.0053 184.0806 45.6653 186.1756 43.3883 192.4966 46.8303 192.5386 46.7853 188.5486 40.8073 190.7666 38.3953 198.7486 45.7363 197.1206 47.5043" style="fill:#090506;"/><path d="M201.8255,32.9637c-.178-.209-.354-.355-.525-.438-.17-.082-.336-.122-.496-.119-.158.001-.306.037-.442.105-.136.07-.258.151-.367.243l-.582.498,1.781,2.082.547-.466c.263-.225.424-.507.479-.842.056-.337-.076-.69-.395-1.063M206.7725,38.5257l-3.908-2.34-.546.465,2.807,3.282-1.794,1.533-7.044-8.241,2.636-2.253c.798-.681,1.596-1.003,2.392-.965.797.037,1.546.467,2.249,1.29.259.304.457.604.592.905.136.299.221.583.254.849.034.267.028.514-.019.742-.046.227-.114.421-.206.579l4.549,2.478-1.962,1.676Z" style="fill:#090506;"/><polygon points="210.1948 35.7457 203.7348 27.0377 207.9408 23.9177 209.2268 25.6507 206.9018 27.3767 208.1718 29.0857 210.3098 27.4977 211.5158 29.1207 209.3758 30.7097 210.7628 32.5777 213.2348 30.7447 214.5488 32.5157 210.1948 35.7457" style="fill:#090506;"/><path d="M220.98,28.3097c-.326.402-.767.78-1.327,1.137-.576.367-1.164.579-1.764.635-.6.057-1.19-.024-1.771-.239-.582-.217-1.142-.563-1.683-1.04-.542-.476-1.042-1.071-1.497-1.784-.457-.713-.79-1.418-.999-2.113-.209-.694-.293-1.353-.256-1.976.038-.622.199-1.19.485-1.698.285-.509.696-.933,1.229-1.273.62-.396,1.205-.621,1.757-.677s1.05-.002,1.494.163l-.157,2.223c-.586-.231-1.147-.176-1.683.166-.284.182-.484.414-.595.697-.111.282-.153.596-.127.943.027.346.119.711.273,1.095.155.385.357.771.605,1.157.246.387.511.733.79,1.037.282.305.571.544.871.716.298.172.598.269.901.295.302.025.596-.053.881-.235.312-.199.514-.419.604-.658l-1.089-1.699-.981.625-1.146-1.791,2.788-1.778,3.109,4.856c-.15.41-.388.816-.712,1.216" style="fill:#090506;"/><rect x="221.3667" y="15.6889" width="2.467" height="10.8434" transform="translate(17.8263 110.9113) rotate(-29.0967)" style="fill:#090506;"/><path d="M231.0709,16.7661c-.202-.424-.421-.803-.66-1.136-.238-.332-.483-.604-.735-.811-.25-.209-.505-.345-.763-.409-.256-.064-.509-.038-.757.082-.249.118-.432.298-.548.54-.117.242-.173.526-.17.853.003.326.06.686.174,1.079.112.393.271.8.473,1.224.202.424.42.806.656,1.147.235.339.479.613.731.821.252.209.509.345.772.412.264.067.52.042.769-.078.249-.118.429-.299.537-.544.111-.244.165-.529.162-.856-.003-.326-.06-.689-.171-1.089-.112-.399-.268-.812-.47-1.235M233.3379,15.6861c.369.774.618,1.524.749,2.247.13.725.141,1.389.033,1.995-.108.604-.335,1.143-.682,1.613-.346.471-.81.844-1.391,1.121-.58.275-1.164.4-1.747.373-.585-.027-1.146-.19-1.683-.487-.538-.298-1.046-.726-1.526-1.284-.48-.557-.905-1.222-1.274-1.996s-.618-1.518-.748-2.23c-.13-.713-.14-1.369-.03-1.97.109-.6.338-1.133.688-1.6.349-.466.818-.839,1.409-1.12.58-.276,1.161-.402,1.743-.38.582.022,1.14.181,1.676.473.534.294,1.041.714,1.516,1.263.476.547.898,1.208,1.267,1.982" style="fill:#090506;"/><polygon points="242.0159 18.149 237.3359 12.859 237.2929 12.875 239.6799 19.03 237.6299 19.802 233.8049 9.657 236.3269 8.706 241.0249 14.087 241.0659 14.071 238.6629 7.825 240.6399 7.08 244.4659 17.224 242.0159 18.149" style="fill:#090506;"/><path d="M247.6582,7.3833l-.06.017.394,4.685,1.781-.514-2.115-4.188ZM251.5662,15.0873l-.973-1.775-2.34.674.12,2.021-2.354.678-.472-11.148,2.958-.852,5.52,9.693-2.459.709Z" style="fill:#090506;"/><polygon points="255.6526 14.0375 253.3716 3.4375 255.7976 2.9155 257.6016 11.3005 260.4316 10.6905 260.9086 12.9065 255.6526 14.0375" style="fill:#090506;"/><polygon points="265.0356 1.2665 266.3226 12.0345 271.7056 11.3905 271.4436 9.2005 268.3876 9.5655 268.1116 7.2545 270.7566 6.9385 270.5176 4.9315 267.8706 5.2475 267.6186 3.1335 270.4926 2.7905 270.2366 .6455 265.0356 1.2665" style="fill:#090506;"/><path d="M278.6754,5.5724c-.05-1.09-.276-1.904-.674-2.443-.398-.538-.893-.793-1.484-.765l-.596.028.305,6.542.597-.028c.59-.027,1.06-.327,1.406-.9.347-.573.496-1.384.446-2.434M281.1384,5.4574c.039.815-.017,1.558-.164,2.229-.148.671-.394,1.25-.738,1.735-.346.487-.795.87-1.349,1.151-.555.282-1.22.441-1.994.477l-3.046.142-.505-10.824,3.044-.142c.775-.036,1.452.06,2.03.288.578.228,1.061.571,1.451,1.027.39.458.689,1.016.898,1.674.21.66.334,1.408.373,2.243" style="fill:#090506;"/><path d="M290.5662,8.745c-.155.515-.387.962-.695,1.341-.309.377-.701.671-1.179.88-.476.209-1.046.303-1.71.281-.663-.022-1.221-.153-1.672-.392-.453-.24-.817-.558-1.095-.956-.278-.396-.473-.857-.583-1.382-.11-.525-.156-1.088-.137-1.691l.225-6.826,2.464.08-.217,6.613c-.01.306-.001.593.025.859.028.267.084.495.17.688.085.192.203.346.352.463s.347.18.592.188c.245.009.445-.042.601-.149.158-.107.286-.253.383-.438.098-.187.169-.411.213-.676.045-.264.073-.55.083-.856l.217-6.612,2.449.081-.224,6.826c-.02.603-.107,1.161-.262,1.678" style="fill:#090506;"/><path d="M298.6655,11.7462c-.507.228-1.131.3-1.873.221-.629-.068-1.185-.27-1.667-.603-.483-.334-.878-.771-1.19-1.313-.311-.541-.53-1.169-.657-1.884-.128-.716-.148-1.49-.057-2.32.092-.841.277-1.6.555-2.276.279-.677.628-1.244,1.047-1.701.419-.457.901-.795,1.443-1.013.542-.218,1.128-.293,1.757-.225.721.078,1.309.272,1.763.582.454.312.807.676,1.059,1.091l-1.501,1.621c-.156-.262-.341-.478-.554-.643-.211-.167-.491-.269-.837-.306-.324-.036-.615.02-.872.167-.258.146-.487.36-.686.641-.2.28-.363.621-.488,1.022-.127.402-.215.835-.265,1.302-.05.466-.057.906-.021,1.32.038.413.124.781.258,1.103.135.323.315.582.54.781.224.199.498.316.824.35.325.035.619-.015.879-.15.262-.136.475-.308.642-.515l1.171,1.832c-.339.384-.762.689-1.27.916" style="fill:#090506;"/><path d="M306.5875,4.5779l-.061-.011-1.749,4.362,1.822.341-.012-4.692ZM306.6255,13.2159l-.074-2.023-2.393-.447-.799,1.86-2.409-.45,4.579-10.175,3.026.565.585,11.139-2.515-.469Z" style="fill:#090506;"/><path d="M316.0618,15.285c-.476.149-1.037.166-1.683.049l-.656.509c.066-.006.124,0,.178.014.055.015.112.029.171.044.148.04.294.097.438.172.145.074.269.172.374.295.105.122.18.271.223.447.043.175.035.381-.028.617-.075.287-.203.506-.385.659-.183.152-.39.256-.622.312-.23.055-.468.072-.717.05-.247-.024-.47-.06-.666-.113-.258-.067-.529-.167-.816-.301-.287-.133-.531-.284-.728-.452l.595-.824c.148.123.322.234.523.334.2.1.384.173.552.217.167.044.337.053.507.03.17-.024.28-.13.329-.318.042-.158,0-.283-.124-.373s-.255-.153-.394-.189c-.099-.027-.213-.043-.343-.052-.129-.007-.245-.002-.343.014l-.351-.536,1.137-.952c-.463-.247-.852-.579-1.165-.993-.314-.415-.549-.894-.707-1.437-.159-.543-.235-1.14-.226-1.793.007-.651.104-1.333.291-2.043.214-.819.51-1.545.885-2.174.378-.629.806-1.138,1.29-1.529.481-.39,1.006-.654,1.576-.789.568-.137,1.158-.124,1.77.036.702.185,1.254.463,1.657.838.403.375.698.787.887,1.237l-1.725,1.385c-.115-.284-.267-.524-.452-.721-.187-.196-.447-.338-.783-.426-.316-.084-.612-.071-.888.036s-.533.284-.773.533c-.239.248-.451.562-.634.941-.186.38-.336.796-.456,1.25-.118.455-.19.889-.216,1.305-.023.415.006.792.092,1.132.085.338.224.623.416.853.194.23.449.386.765.469.316.082.612.077.891-.019.278-.096.515-.234.711-.415l.887,1.989c-.366.305-.786.533-1.264.682" style="fill:#090506;"/><path d="M328.7351,5.2215c-.213.552-.49.953-.83,1.202-.341.251-.705.308-1.09.174-.309-.107-.603-.332-.883-.677-.166-.209-.292-.35-.38-.424-.088-.074-.195-.132-.32-.175-.27-.095-.503.062-.698.47l-.84-.289c.212-.521.489-.915.83-1.181.34-.265.703-.331,1.089-.198.184.064.34.151.469.261.13.108.272.255.424.437.169.199.299.339.389.419.092.081.201.142.326.185.145.05.268.036.371-.042.103-.077.208-.227.317-.448l.826.286ZM324.7781,9.3935l-.057-.021-2.377,4.057,1.751.605.683-4.641ZM323.5371,17.9415l.226-2.012-2.3-.796-1.067,1.722-2.316-.802,6.036-9.384,2.909,1.006-1.072,11.103-2.416-.837Z" style="fill:#090506;"/><path d="M334.3792,16.4624c.188-.43.33-.843.427-1.241.095-.397.139-.759.132-1.086-.009-.325-.073-.606-.191-.843-.12-.236-.306-.409-.558-.519-.254-.111-.51-.13-.769-.06-.259.07-.511.215-.756.43-.245.216-.479.495-.7.838-.223.342-.428.728-.616,1.158-.188.43-.334.846-.437,1.246s-.15.764-.142,1.09c.008.327.072.611.195.853.123.243.311.42.562.53.252.11.507.126.765.05.256-.078.507-.224.752-.44.245-.217.482-.496.71-.843.23-.345.438-.731.626-1.163M336.6812,17.4684c-.344.785-.746,1.463-1.208,2.035-.463.573-.957,1.016-1.485,1.331-.527.315-1.083.496-1.667.541-.582.046-1.168-.059-1.758-.317-.589-.257-1.065-.614-1.427-1.074-.362-.457-.606-.987-.734-1.588-.127-.601-.137-1.266-.031-1.993.106-.727.332-1.483.676-2.268.342-.786.74-1.46,1.194-2.025.453-.565.943-1.002,1.468-1.312.526-.31,1.079-.487,1.661-.529.579-.04,1.169.07,1.768.331.591.258,1.067.612,1.43,1.067.365.454.612.978.741,1.575.129.597.142,1.253.04,1.971-.103.718-.325,1.469-.668,2.255" style="fill:#090506;"/><polygon points="339.6565 25.1568 345.0155 15.7318 349.5685 18.3208 348.5025 20.1968 345.9865 18.7668 344.9335 20.6178 347.2505 21.9348 346.2505 23.6918 343.9335 22.3748 342.7835 24.3978 345.4595 25.9198 344.3695 27.8368 339.6565 25.1568" style="fill:#090506;"/><path d="M350.8887,31.9005c-.555-.031-1.143-.252-1.765-.662-.528-.348-.931-.782-1.205-1.3-.276-.519-.427-1.09-.455-1.713-.028-.625.065-1.284.281-1.98.215-.696.553-1.392,1.015-2.09.467-.707.98-1.297,1.539-1.773.559-.474,1.129-.82,1.712-1.034.582-.214,1.164-.295,1.746-.241.582.054,1.138.256,1.666.606.605.399,1.038.842,1.299,1.326.261.484.408.97.441,1.455l-2.079.756c-.018-.305-.083-.58-.196-.827-.113-.246-.313-.464-.603-.655-.273-.181-.557-.264-.854-.252-.295.013-.597.099-.903.256-.306.159-.607.388-.904.688-.296.299-.573.645-.832,1.036-.259.393-.468.781-.624,1.166-.157.386-.251.752-.279,1.101-.028.348.013.662.122.942.108.28.299.509.57.689.273.181.557.27.851.268.295-.001.564-.055.806-.164l.201,2.168c-.478.187-.994.265-1.55.234" style="fill:#090506;"/><path d="M360.5653,32.4941c.288-.371.526-.737.717-1.101.191-.362.321-.703.395-1.022.073-.317.08-.606.021-.865-.058-.257-.196-.472-.415-.64-.217-.168-.46-.251-.729-.246-.269.005-.547.083-.838.232-.29.149-.584.363-.884.642-.3.277-.593.603-.881.973-.288.372-.53.74-.728,1.103-.197.363-.332.704-.405,1.022-.072.319-.079.611-.019.876.058.266.197.483.414.651.219.169.461.248.728.236.268-.013.547-.093.837-.243.291-.15.589-.363.896-.643.307-.278.603-.604.891-.975M362.5503,34.0331c-.526.678-1.083,1.238-1.67,1.679-.588.443-1.176.752-1.765.927-.589.177-1.171.216-1.747.119-.576-.098-1.119-.344-1.627-.738s-.881-.858-1.121-1.391c-.238-.535-.345-1.108-.321-1.722.023-.614.177-1.262.458-1.941.281-.68.685-1.359,1.209-2.037.526-.678,1.078-1.235,1.655-1.673.578-.437,1.158-.742,1.744-.914.586-.173,1.165-.208,1.739-.106.572.103,1.118.353,1.634.755.508.394.882.855,1.124,1.385.243.529.353,1.098.332,1.71-.021.61-.169,1.251-.444,1.923-.276.671-.675,1.346-1.2,2.024" style="fill:#090506;"/><polygon points="364.2554 42.8802 366.8664 36.3182 366.8324 36.2872 362.4164 41.1932 360.8024 39.7122 368.1304 31.7222 370.1174 33.5432 367.4324 40.1632 367.4674 40.1942 371.9564 35.2302 373.5144 36.6592 366.1854 44.6502 364.2554 42.8802" style="fill:#090506;"/><path d="M379.4493,41.6051l-1.124-1.216,2.556-.483,1.351,1.462-2.783.237ZM375.6383,46.6881c.345-.319.642-.64.889-.966.248-.327.433-.641.557-.943s.179-.586.165-.85c-.016-.265-.117-.498-.304-.701-.186-.202-.413-.323-.679-.362-.266-.039-.555-.01-.865.091-.312.1-.638.262-.979.487-.341.224-.684.496-1.029.815-.345.318-.645.641-.899.967-.255.326-.444.639-.568.942-.126.302-.18.588-.165.86.014.271.116.51.302.712.187.201.414.32.68.352.266.032.554-.002.866-.102.311-.099.64-.262.989-.486.348-.225.694-.497,1.04-.816M377.3423,48.5331c-.629.582-1.271,1.043-1.924,1.381-.652.34-1.284.547-1.894.626-.61.076-1.19.019-1.743-.173-.553-.191-1.047-.524-1.483-.996-.437-.472-.73-.991-.876-1.558-.147-.565-.16-1.148-.035-1.751.126-.602.383-1.215.773-1.838.389-.625.898-1.228,1.529-1.81.629-.582,1.266-1.04,1.907-1.376.642-.337,1.266-.542,1.872-.615.607-.073,1.183-.013,1.733.182.547.195,1.045.533,1.487,1.014.437.472.731.988.882,1.551.151.562.167,1.143.046,1.742-.121.598-.373,1.205-.755,1.822-.383.618-.888,1.217-1.519,1.799" style="fill:#090506;"/><polygon points="379.2344 59.7291 385.2034 55.2831 385.1674 55.2351 378.1474 58.3061 377.0954 56.9301 381.9394 51.0111 381.9114 50.9751 376.0444 55.5561 374.6964 53.7921 383.3114 47.2081 385.1894 49.6651 380.7024 55.2931 380.7384 55.3421 387.3194 52.4511 389.3094 55.0551 380.6954 61.6391 379.2344 59.7291" style="fill:#090506;"/><rect x="381.8526" y="60.6356" width="10.843" height="2.4657" transform="translate(29.3499 222.1783) rotate(-33.2035)" style="fill:#090506;"/><path d="M387.718,72.8404c-.483-.275-.91-.735-1.282-1.38-.316-.548-.481-1.113-.495-1.7-.014-.585.106-1.163.361-1.733.255-.57.634-1.117,1.138-1.643.504-.524,1.119-.995,1.844-1.412.734-.422,1.457-.721,2.17-.895.713-.175,1.377-.228,1.994-.158.616.068,1.173.257,1.67.565.496.309.903.737,1.219,1.284.36.627.55,1.215.567,1.764.016.549-.07,1.05-.258,1.498l-2.197-.254c.121-.28.185-.556.195-.825.008-.271-.073-.556-.247-.857-.163-.282-.38-.483-.65-.604-.27-.122-.578-.179-.922-.175-.345.004-.717.073-1.116.208-.4.137-.802.321-1.209.555-.408.233-.767.488-1.08.762-.314.275-.562.561-.743.858-.181.299-.285.598-.313.895-.029.299.039.59.202.872.163.283.376.489.641.62.263.13.529.201.795.214l-.794,2.025c-.51-.047-1.007-.209-1.49-.484" style="fill:#090506;"/><path d="M398.171,74.9921l-.027-.055-4.554,1.159.799,1.673,3.782-2.777ZM391.217,80.1161l1.59-1.253-1.05-2.196-1.974.451-1.057-2.211,10.919-2.3,1.327,2.776-8.652,7.04-1.103-2.307Z" style="fill:#090506;"/><polygon points="0 95.4884 0 195.5994 23.897 195.5994 23.897 156.7134 62.639 156.7134 62.639 136.7774 23.897 136.7774 23.897 116.1344 65.892 116.1344 65.892 95.4884 0 95.4884" style="fill:#090506;"/><path d="M138.5967,126.1735c0-2.356-.5-4.266-1.494-5.728-.994-1.459-2.273-2.59-3.836-3.392-1.564-.802-3.315-1.345-5.257-1.626-1.943-.284-3.814-.426-5.612-.426h-12.929v23.33h11.508c1.988,0,4.025-.161,6.111-.493,2.084-.328,3.977-.919,5.682-1.768,1.706-.849,3.102-2.072,4.193-3.676,1.088-1.601,1.634-3.676,1.634-6.221M139.5867,195.5995l-21.736-39.732h-8.24v39.732h-23.614v-100.111h38.177c4.808,0,9.496.496,14.069,1.484,4.572.992,8.672,2.665,12.302,5.021,3.627,2.359,6.526,5.47,8.696,9.332,2.167,3.868,3.252,8.674,3.252,14.422,0,6.789-1.838,12.492-5.515,17.109-3.676,4.62-8.767,7.92-15.27,9.9l26.158,42.843h-28.279Z" style="fill:#090506;"/><polygon points="409.4373 195.5995 409.4373 95.4885 476.7423 95.4885 476.7423 115.8505 432.7683 115.8505 432.7683 134.7975 474.3393 134.7975 474.3393 154.1685 432.7683 154.1685 432.7683 174.9535 479.2883 174.9535 479.2883 195.5995 409.4373 195.5995" style="fill:#090506;"/><polygon points="501.5853 95.4884 501.5853 195.5994 571.4363 195.5994 571.4363 174.9534 524.9163 174.9534 524.9163 154.1684 566.4873 154.1684 566.4873 134.7974 524.9163 134.7974 524.9163 115.8514 568.8903 115.8514 568.8903 95.4884 501.5853 95.4884" style="fill:#090506;"/><path d="M388.0913,126.0797c-6.731-112.077-156.654-138.671-201.484-35.238-4.24,10.314-6.874,21.675-7.565,33.225-.004,1.259-.318,2.597.213,3.186,21.328-.001,170.299.061,208.45.025.446-.087.305-.384.385-1.106l.001-.092Z" style="fill:#ffcb05;"/><path d="M373.0657,184.3719c2.095-3.372,5.978-10.522,7.268-14.479-8.019-.181-186.646-1.631-193.013.499,1.338,3.567,5.166,11.045,7.179,14.055.185.307.502.715.823.779,36.193.018,101.752.005,140.792.009,19.478-.002,33.712.003,36.041-.003.419-.066.456-.27.859-.785l.051-.075Z" style="fill:#ffcb05;"/><path d="M179.812,139.0113c.415,5.575,1.397,11.34,2.746,16.72.23.722.343,1.737.852,1.912,8.384.009,192.305.009,200.689,0,.186-.018.332-.195.533-.798.242-.901.617-2.163.818-3.189,1.076-4.245,1.961-10.659,2.242-14.645.021-.258.002-.516-.025-.73-.022-.181-.101-.283-.263-.29-38.136.009-124.281-.009-167.768-.001-21.64,0-37.202-.002-39.555.001-.363.074-.234.31-.272.932l.003.088Z" style="fill:#ffcb05;"/><polygon points="196.1702 204.2477 202.4352 158.3927 222.3972 141.6027 225.5872 117.0987 241.9752 113.2627 244.4822 84.9807 259.0202 88.3047 259.9142 69.3737 273.9812 62.6547 274.1002 41.2537 306.7532 56.4227 307.2142 66.2917 320.7922 62.3937 324.4512 103.7047 340.6932 109.4507 342.8572 126.0797 357.6572 131.1997 369.0782 205.0947 196.1702 204.2477" style="fill:#e7e7e7;"/><polygon points="336.6729 129.2045 335.3559 112.5635 318.9989 106.5755 315.5189 69.5005 301.0549 73.0875 307.4869 202.2695 337.4139 202.2695 328.9029 127.6215 336.4729 130.2235 336.6729 129.2045" style="fill:#949598;"/><polygon points="264.7852 94.8229 259.5642 201.0219 230.2752 201.0219 237.6392 136.4409 229.0382 143.1739 227.9542 143.6719 231.0382 120.9219 247.5952 117.0639 250.0872 90.4949 264.7882 94.8199 264.7852 94.8229" style="fill:#949598;"/><path d="M346.274,199.9063c-.734-3.227-9.152-67.621-9.66-70.355-.07-.18-.701-.384-1.046-.506-1.617-.526-4.721-1.677-6.717-2.3-.407-.128-.81.2-.773.626,1.477,16.689,8.176,71.169,8.118,72.461-6.408.296-19.248.044-26.914.096-.764.004-1.404-.568-1.481-1.329-1.323-13.002-5.63-110.519-6.695-124.234-1.654.212-4.409,1.257-6.072,1.651-.488.205-1.146.236-1.069.726.127,4.004,1.529,45.671,1.619,48.77-.021.401-.545.048-.819.002-2.344-.887-10.379-3.488-12.649-4.503-.547-.524-.351-1.044-.411-2.032-.003-1.166.002-2.855-.003-3.959-.007-.872-.033-1.365-.28-1.439-1.649.394-7.288,3.881-9.055,4.663-.372.197-.752.342-.702-.227.063-2.658.695-18.343.706-20.512-.12-.562-.484-.528-1.168-.742-1.289-.311-4.766-1.1-6.083-1.366-.632-.155-.273.436-.418,1.218-.7,10.99-4.438,88.842-5.388,101.625-.071.958-.859,1.695-1.821,1.701-7.696.047-24.431-.024-26.438-.005-.215-.013-.267-.042-.251-.247.364-3.323,6.232-54.495,7.172-63.017.047-.432-.449-.702-.787-.429-1.899,1.531-6.248,5.137-7.853,6.478-.947.792-.819.569-.673-.581.821-5.766,1.835-13.749,2.688-19.833.19-1.334.044-1.266,1.505-1.603,4.275-.999,9.503-2.212,13.65-3.181.738-.231,1.31-.106,1.376-.849.221-2.446,1.745-18.622,2.296-24.272.071-.492.452-.302,1.948.02,3.39.769,8.679,1.98,12.002,2.719.463.077.609.094.66-.321.135-2.112.918-17.534,1.089-20.632-.001-.612.181-.854.704-1.093,1.699-.823,8.834-4.201,11.787-5.608.946-.48,1.701-.598,1.602-1.707.03-2.153.103-9.47.138-12.588.027-1.319-.042-1.735.387-1.582,1.658.743,12.978,5.964,17.984,8.283,1.443.761,2.073.457,2.027,2.359.117,2.219.239,4.555.357,6.799.047.912.093,1.78.132,2.521.15,1.55-.074,2.343.439,2.523,2.69-.487,8.991-2.588,11.543-3.213.874-.248,1.376-.407,1.596-.399.129.004.183.061.214.179.262,2.394,3.075,32.736,3.422,36.294.136.763.396.534,2.033,1.186,3.173,1.124,7.221,2.539,10.519,3.705.799.278,1.5.53,2.254.793,1.526.53,1.383.411,1.626,2.164.694,4.427,1.232,10.224,2.032,14.4.113.239.369.327.629.431,2.036.712,11.072,3.81,14.791,5.092,1.192.487,1.655.383,1.916.865.567,3.49,10.031,56.374,11.353,64.103.033.239-.119.222-.351.241-1.976-.079-16.521.105-18.709-.022l-.028-.008ZM228.547,143.4533c-1.523,11.46-7.443,55.007-7.631,56.294-.027.081-.074.117-.212.134-.235.026-.843.012-1.836.016-3.877-.009-11.27.006-15.648,0-1.244-.015-1.564.063-1.528-.205.616-2.516,6.15-36.793,7.283-39.947,4.865-4.048,17.989-15.043,19.566-16.294l.006.002ZM360.802,129.6603c-4.675-1.636-10.835-3.784-15.731-5.468-1.467-.502-1.279-.325-1.522-2.109-.363-2.805-.75-5.758-1.118-8.591-.327-1.956-.415-4.714-.939-6.072-.476-.475-1.66-.576-3.51-1.346-3.951-1.405-8.83-3.093-12.05-4.291-.733-2.12-2.99-32.851-3.798-40.349-.069-.652-.045-1.013-.168-1.458-.136-.102-.326-.055-.544.006-1.579.435-9.649,2.78-11.828,3.389-.65.248-.829-.029-.885-.62-.098-1.209-.232-4.814-.317-6.305-.096-.827.044-1.038-.405-1.302-3.093-1.428-34.395-16.024-35.832-16.637-.181.002-.124.228-.146.408-.016,2.598-.09,15.627-.122,21.435-.035.578.133,1.053-.418,1.316-1.136.582-7.567,3.624-10.996,5.274-.869.557-2.384.95-2.336,1.357-.297,2.233-.672,14.959-.877,16.74-.106.421-.348.309-.818.23-1.945-.385-4.502-1.066-6.786-1.548-1.593-.364-3.148-.72-4.313-.986-1.455-.291-2.089-.641-2.259-.076-.942,8.145-1.613,18.32-2.41,26.411-.194.969.198,1.929-.906,2.073-2.158.534-10.312,2.4-13.885,3.255-1.269.31-1.439.262-1.515.863-.703,5.655-1.784,13.49-2.536,19.477-.173,1.262-.31,2.426-.472,3.63-.182,1.376-.034,1.029-1.205,2.042-1.249,1.063-2.47,2.071-3.781,3.182-4.622,3.885-10.245,8.613-14.626,12.323-.88,2.282-8.055,38.532-10.709,50.696,5.337,7.551,18.614,26.395,21.214,29.438,4.927,2.11,10.732,4.592,15.789,6.74,1.234.532,1.209.413,1.754,1.831.73,1.877,1.498,3.848,2.236,5.744.556,1.438,1.203,3.426,1.835,4.292,2.742.725,9.636,1.201,11.61,1.563.446.055.786.171.942.62.817,2.788,2.513,9.186,3.029,10.959.146.456.357.71.889.788,3.092.791,13.732,3.004,18.341,4.513,1.196,1.408,4.573,5.466,6.316,7.627.798.935.865,1.131,1.569.882,1.94-.712,10.224-3.803,14.277-5.309,1.397-.459,2.18-.997,3.559-.96,2.32-.219,7.588-.08,9.706-.404,1.946-1.609,13.707-15.952,18.448-21.168.311-.36.499-.493.965-.532,1.907-.26,11.373-1.519,15.936-2.13,1.241-.296,2.39.077,3.001-.914.791-1.358,4.259-7.586,5.319-9.451.281-.522.566-.909,1.097-1.175,2.052-1.227,9.516-5.08,12.487-6.82,2.016-2.626,9.228-17.507,12.764-23.667.693-1.513,1.151-1.855,1.238-2.51-.639-2.783-13.634-73.578-14.532-76.891l-.026-.015Z" style="fill:#090506;"/><path d="M294.6416,161.3556c-2.412.172-6.21,1.519-8.805,1.61-.388-.047-.528-.25-.544-.65.019-.975.404-3.271.757-6.108.694-5.47,1.697-12.239,2.297-17.55-1.287,1.7-11.42,22.172-15.318,29.469-.398.932-1.653,2.711-.889,2.64,1.553.005,5.349-1.103,6.787-1.249.434-.074,1.146-.094,1.236.24-.284,4.712-3.625,23.408-4.095,27.673-.011.168.011.207.074.131.575-.972,1.055-1.987,1.813-3.406,3.99-7.621,9.14-17.46,13.134-25.088,1.883-3.628,3.383-6.397,3.807-7.327.077-.216.064-.353-.194-.381l-.06-.004Z" style="fill:#ffcb05;"/><polygon points="236.4294 226.9642 236.5364 213.5322 236.4564 213.5322 231.5224 226.9642 228.3054 226.9642 223.5064 213.5322 223.4264 213.5322 223.5334 226.9642 219.2174 226.9642 219.2174 207.9822 225.7404 207.9822 230.0624 220.1542 230.1694 220.1542 234.3034 207.9822 240.9334 207.9822 240.9334 226.9642 236.4294 226.9642" style="fill:#e7e7e7;"/><path d="M253.491,213.0492l-2.413,6.515h4.772l-2.359-6.515ZM258.585,226.9642l-1.475-3.727h-7.346l-1.394,3.727h-4.987l7.963-18.982h4.451l7.882,18.982h-5.094Z" style="fill:#e7e7e7;"/><path d="M279.0927,217.4195c0-1.072-.174-1.962-.522-2.668-.35-.706-.814-1.268-1.395-1.689-.581-.42-1.242-.719-1.983-.898-.742-.178-1.506-.268-2.293-.268h-2.28v11.099h2.173c.821,0,1.612-.093,2.372-.281.76-.188,1.43-.495,2.011-.924.581-.429,1.045-1.001,1.395-1.717.348-.714.522-1.599.522-2.654h0ZM283.8657,217.4195c0,1.663-.309,3.097-.926,4.302-.615,1.208-1.43,2.199-2.439,2.977-1.01.777-2.15,1.35-3.419,1.716-1.269.367-2.556.55-3.861.55h-7.077v-18.982h6.863c1.341,0,2.664.156,3.968.469,1.305.313,2.467.831,3.486,1.555,1.019.724,1.84,1.693,2.467,2.909.625,1.215.938,2.716.938,4.504h0Z" style="fill:#e7e7e7;"/><polygon points="287.5657 226.9642 287.5657 207.9822 300.3257 207.9822 300.3257 211.8432 291.9887 211.8432 291.9887 215.4352 299.8707 215.4352 299.8707 219.1082 291.9887 219.1082 291.9887 223.0502 300.8097 223.0502 300.8097 226.9642 287.5657 226.9642" style="fill:#e7e7e7;"/><rect x="304.786" y="207.9827" width="4.611" height="18.982" style="fill:#e7e7e7;"/><path d="M324.0495,213.7992c0-.445-.095-.807-.284-1.084-.188-.277-.431-.492-.727-.645-.297-.152-.628-.255-.997-.308-.368-.054-.722-.08-1.064-.08h-2.452v4.423h2.182c.377,0,.764-.031,1.16-.093.394-.063.754-.174,1.076-.336.325-.16.589-.392.795-.696.208-.304.311-.698.311-1.181h0ZM324.2375,226.9642l-4.122-7.534h-1.563v7.534h-4.477v-18.982h7.239c.911,0,1.8.093,2.668.281.866.188,1.645.506,2.332.953.688.446,1.238,1.036,1.649,1.769.41.733.617,1.645.617,2.735,0,1.286-.349,2.368-1.046,3.244-.698.876-1.663,1.501-2.896,1.876l4.961,8.124h-5.362Z" style="fill:#e7e7e7;"/><path d="M341.3503,213.0492l-2.413,6.515h4.772l-2.359-6.515ZM346.4443,226.9642l-1.475-3.727h-7.346l-1.394,3.727h-4.987l7.963-18.982h4.451l7.882,18.982h-5.094Z" style="fill:#e7e7e7;"/><polygon points="166.5916 77.5013 168.6176 78.4123 169.6786 76.0523 171.5926 76.9123 170.5376 79.2603 174.4756 81.0313 173.4576 83.2933 163.5686 78.8453 165.7366 74.0273 167.7486 74.9313 166.5916 77.5013" style="fill:#090506;"/><path d="M174.2244,69.3908c-.413-.223-.815-.398-1.203-.528-.39-.128-.746-.203-1.072-.223-.327-.019-.613.021-.858.122-.245.098-.433.27-.564.512-.13.242-.172.496-.124.76.049.265.172.528.367.79.195.262.453.518.777.768.323.25.692.486,1.104.71.413.223.816.403,1.206.538.391.136.75.214,1.076.234.326.019.615-.022.867-.124.252-.102.443-.274.574-.517.132-.242.17-.494.114-.756-.056-.263-.181-.525-.376-.787-.195-.261-.455-.521-.781-.778-.324-.257-.695-.497-1.107-.721M175.4174,67.1808c.755.408,1.398.866,1.93,1.375.532.508.933,1.037,1.205,1.59.27.552.403,1.12.4,1.705-.002.585-.157,1.16-.462,1.726-.306.566-.703,1.01-1.19,1.332-.487.323-1.036.522-1.646.599-.61.078-1.274.032-1.99-.135-.717-.166-1.452-.454-2.206-.861-.755-.408-1.396-.86-1.921-1.36-.526-.499-.921-1.022-1.187-1.572-.266-.55-.396-1.116-.389-1.699.009-.582.167-1.16.478-1.735.305-.567.7-1.012,1.183-1.337.484-.324,1.028-.526,1.632-.605.606-.079,1.263-.038,1.97.124.708.161,1.439.447,2.193.853M168.1804,67.4318l-.785,1.455-1.286-2.261.946-1.752,1.125,2.558Z" style="fill:#090506;"/><path d="M177.4477,60.269c-.231-.149-.44-.239-.628-.268-.186-.031-.356-.023-.509.025-.152.047-.283.124-.394.228-.111.106-.205.217-.282.337l-.416.643,2.3,1.49.391-.604c.19-.291.262-.606.219-.944-.042-.337-.269-.639-.681-.907M183.7747,64.193l-4.412-1.131-.39.603,3.624,2.347-1.281,1.979-9.102-5.892,1.885-2.911c.57-.882,1.243-1.416,2.017-1.607.774-.191,1.615.008,2.524.596.334.215.609.449.824.697.216.249.379.497.488.742.108.247.172.486.192.717.021.232.01.436-.032.614l5.065,1.079-1.402,2.167Z" style="fill:#090506;"/><path d="M188.5957,53.6251c.332.425.561.873.689,1.344.13.47.141.96.034,1.47-.106.509-.361,1.029-.763,1.557-.403.527-.833.905-1.29,1.134-.458.229-.928.341-1.414.337-.485-.004-.972-.113-1.463-.327-.492-.214-.978-.505-1.457-.87l-5.428-4.144,1.495-1.96,5.259,4.014c.244.185.482.345.714.477.232.133.452.22.658.261.206.042.4.036.582-.018.183-.053.349-.177.496-.372.149-.195.226-.387.229-.578.004-.189-.042-.378-.136-.565-.094-.188-.236-.376-.426-.567-.189-.189-.406-.376-.648-.562l-5.26-4.015,1.487-1.947,5.429,4.143c.479.366.883.762,1.213,1.188" style="fill:#090506;"/><polygon points="197.1206 47.5043 191.7046 42.3983 191.6626 42.4433 195.9076 48.8243 194.7356 50.0973 188.0656 46.3543 188.0336 46.3893 193.5646 51.3703 192.0606 53.0053 184.0806 45.6653 186.1756 43.3883 192.4966 46.8303 192.5386 46.7853 188.5486 40.8073 190.7666 38.3953 198.7486 45.7363 197.1206 47.5043" style="fill:#090506;"/><path d="M201.8255,32.9637c-.178-.209-.354-.355-.525-.438-.17-.082-.336-.122-.496-.119-.158.001-.306.037-.442.105-.136.07-.258.151-.367.243l-.582.498,1.781,2.082.547-.466c.263-.225.424-.507.479-.842.056-.337-.076-.69-.395-1.063M206.7725,38.5257l-3.908-2.34-.546.465,2.807,3.282-1.794,1.533-7.044-8.241,2.636-2.253c.798-.681,1.596-1.003,2.392-.965.797.037,1.546.467,2.249,1.29.259.304.457.604.592.905.136.299.221.583.254.849.034.267.028.514-.019.742-.046.227-.114.421-.206.579l4.549,2.478-1.962,1.676Z" style="fill:#090506;"/><polygon points="210.1948 35.7457 203.7348 27.0377 207.9408 23.9177 209.2268 25.6507 206.9018 27.3767 208.1718 29.0857 210.3098 27.4977 211.5158 29.1207 209.3758 30.7097 210.7628 32.5777 213.2348 30.7447 214.5488 32.5157 210.1948 35.7457" style="fill:#090506;"/><path d="M220.98,28.3097c-.326.402-.767.78-1.327,1.137-.576.367-1.164.579-1.764.635-.6.057-1.19-.024-1.771-.239-.582-.217-1.142-.563-1.683-1.04-.542-.476-1.042-1.071-1.497-1.784-.457-.713-.79-1.418-.999-2.113-.209-.694-.293-1.353-.256-1.976.038-.622.199-1.19.485-1.698.285-.509.696-.933,1.229-1.273.62-.396,1.205-.621,1.757-.677s1.05-.002,1.494.163l-.157,2.223c-.586-.231-1.147-.176-1.683.166-.284.182-.484.414-.595.697-.111.282-.153.596-.127.943.027.346.119.711.273,1.095.155.385.357.771.605,1.157.246.387.511.733.79,1.037.282.305.571.544.871.716.298.172.598.269.901.295.302.025.596-.053.881-.235.312-.199.514-.419.604-.658l-1.089-1.699-.981.625-1.146-1.791,2.788-1.778,3.109,4.856c-.15.41-.388.816-.712,1.216" style="fill:#090506;"/><rect x="221.3667" y="15.6889" width="2.467" height="10.8434" transform="translate(17.8263 110.9113) rotate(-29.0967)" style="fill:#090506;"/><path d="M231.0709,16.7661c-.202-.424-.421-.803-.66-1.136-.238-.332-.483-.604-.735-.811-.25-.209-.505-.345-.763-.409-.256-.064-.509-.038-.757.082-.249.118-.432.298-.548.54-.117.242-.173.526-.17.853.003.326.06.686.174,1.079.112.393.271.8.473,1.224.202.424.42.806.656,1.147.235.339.479.613.731.821.252.209.509.345.772.412.264.067.52.042.769-.078.249-.118.429-.299.537-.544.111-.244.165-.529.162-.856-.003-.326-.06-.689-.171-1.089-.112-.399-.268-.812-.47-1.235M233.3379,15.6861c.369.774.618,1.524.749,2.247.13.725.141,1.389.033,1.995-.108.604-.335,1.143-.682,1.613-.346.471-.81.844-1.391,1.121-.58.275-1.164.4-1.747.373-.585-.027-1.146-.19-1.683-.487-.538-.298-1.046-.726-1.526-1.284-.48-.557-.905-1.222-1.274-1.996s-.618-1.518-.748-2.23c-.13-.713-.14-1.369-.03-1.97.109-.6.338-1.133.688-1.6.349-.466.818-.839,1.409-1.12.58-.276,1.161-.402,1.743-.38.582.022,1.14.181,1.676.473.534.294,1.041.714,1.516,1.263.476.547.898,1.208,1.267,1.982" style="fill:#090506;"/><polygon points="242.0159 18.149 237.3359 12.859 237.2929 12.875 239.6799 19.03 237.6299 19.802 233.8049 9.657 236.3269 8.706 241.0249 14.087 241.0659 14.071 238.6629 7.825 240.6399 7.08 244.4659 17.224 242.0159 18.149" style="fill:#090506;"/><path d="M247.6582,7.3833l-.06.017.394,4.685,1.781-.514-2.115-4.188ZM251.5662,15.0873l-.973-1.775-2.34.674.12,2.021-2.354.678-.472-11.148,2.958-.852,5.52,9.693-2.459.709Z" style="fill:#090506;"/><polygon points="255.6526 14.0375 253.3716 3.4375 255.7976 2.9155 257.6016 11.3005 260.4316 10.6905 260.9086 12.9065 255.6526 14.0375" style="fill:#090506;"/><polygon points="265.0356 1.2665 266.3226 12.0345 271.7056 11.3905 271.4436 9.2005 268.3876 9.5655 268.1116 7.2545 270.7566 6.9385 270.5176 4.9315 267.8706 5.2475 267.6186 3.1335 270.4926 2.7905 270.2366 .6455 265.0356 1.2665" style="fill:#090506;"/><path d="M278.6754,5.5724c-.05-1.09-.276-1.904-.674-2.443-.398-.538-.893-.793-1.484-.765l-.596.028.305,6.542.597-.028c.59-.027,1.06-.327,1.406-.9.347-.573.496-1.384.446-2.434M281.1384,5.4574c.039.815-.017,1.558-.164,2.229-.148.671-.394,1.25-.738,1.735-.346.487-.795.87-1.349,1.151-.555.282-1.22.441-1.994.477l-3.046.142-.505-10.824,3.044-.142c.775-.036,1.452.06,2.03.288.578.228,1.061.571,1.451,1.027.39.458.689,1.016.898,1.674.21.66.334,1.408.373,2.243" style="fill:#090506;"/><path d="M290.5662,8.745c-.155.515-.387.962-.695,1.341-.309.377-.701.671-1.179.88-.476.209-1.046.303-1.71.281-.663-.022-1.221-.153-1.672-.392-.453-.24-.817-.558-1.095-.956-.278-.396-.473-.857-.583-1.382-.11-.525-.156-1.088-.137-1.691l.225-6.826,2.464.08-.217,6.613c-.01.306-.001.593.025.859.028.267.084.495.17.688.085.192.203.346.352.463s.347.18.592.188c.245.009.445-.042.601-.149.158-.107.286-.253.383-.438.098-.187.169-.411.213-.676.045-.264.073-.55.083-.856l.217-6.612,2.449.081-.224,6.826c-.02.603-.107,1.161-.262,1.678" style="fill:#090506;"/><path d="M298.6655,11.7462c-.507.228-1.131.3-1.873.221-.629-.068-1.185-.27-1.667-.603-.483-.334-.878-.771-1.19-1.313-.311-.541-.53-1.169-.657-1.884-.128-.716-.148-1.49-.057-2.32.092-.841.277-1.6.555-2.276.279-.677.628-1.244,1.047-1.701.419-.457.901-.795,1.443-1.013.542-.218,1.128-.293,1.757-.225.721.078,1.309.272,1.763.582.454.312.807.676,1.059,1.091l-1.501,1.621c-.156-.262-.341-.478-.554-.643-.211-.167-.491-.269-.837-.306-.324-.036-.615.02-.872.167-.258.146-.487.36-.686.641-.2.28-.363.621-.488,1.022-.127.402-.215.835-.265,1.302-.05.466-.057.906-.021,1.32.038.413.124.781.258,1.103.135.323.315.582.54.781.224.199.498.316.824.35.325.035.619-.015.879-.15.262-.136.475-.308.642-.515l1.171,1.832c-.339.384-.762.689-1.27.916" style="fill:#090506;"/><path d="M306.5875,4.5779l-.061-.011-1.749,4.362,1.822.341-.012-4.692ZM306.6255,13.2159l-.074-2.023-2.393-.447-.799,1.86-2.409-.45,4.579-10.175,3.026.565.585,11.139-2.515-.469Z" style="fill:#090506;"/><path d="M316.0618,15.285c-.476.149-1.037.166-1.683.049l-.656.509c.066-.006.124,0,.178.014.055.015.112.029.171.044.148.04.294.097.438.172.145.074.269.172.374.295.105.122.18.271.223.447.043.175.035.381-.028.617-.075.287-.203.506-.385.659-.183.152-.39.256-.622.312-.23.055-.468.072-.717.05-.247-.024-.47-.06-.666-.113-.258-.067-.529-.167-.816-.301-.287-.133-.531-.284-.728-.452l.595-.824c.148.123.322.234.523.334.2.1.384.173.552.217.167.044.337.053.507.03.17-.024.28-.13.329-.318.042-.158,0-.283-.124-.373s-.255-.153-.394-.189c-.099-.027-.213-.043-.343-.052-.129-.007-.245-.002-.343.014l-.351-.536,1.137-.952c-.463-.247-.852-.579-1.165-.993-.314-.415-.549-.894-.707-1.437-.159-.543-.235-1.14-.226-1.793.007-.651.104-1.333.291-2.043.214-.819.51-1.545.885-2.174.378-.629.806-1.138,1.29-1.529.481-.39,1.006-.654,1.576-.789.568-.137,1.158-.124,1.77.036.702.185,1.254.463,1.657.838.403.375.698.787.887,1.237l-1.725,1.385c-.115-.284-.267-.524-.452-.721-.187-.196-.447-.338-.783-.426-.316-.084-.612-.071-.888.036s-.533.284-.773.533c-.239.248-.451.562-.634.941-.186.38-.336.796-.456,1.25-.118.455-.19.889-.216,1.305-.023.415.006.792.092,1.132.085.338.224.623.416.853.194.23.449.386.765.469.316.082.612.077.891-.019.278-.096.515-.234.711-.415l.887,1.989c-.366.305-.786.533-1.264.682" style="fill:#090506;"/><path d="M328.7351,5.2215c-.213.552-.49.953-.83,1.202-.341.251-.705.308-1.09.174-.309-.107-.603-.332-.883-.677-.166-.209-.292-.35-.38-.424-.088-.074-.195-.132-.32-.175-.27-.095-.503.062-.698.47l-.84-.289c.212-.521.489-.915.83-1.181.34-.265.703-.331,1.089-.198.184.064.34.151.469.261.13.108.272.255.424.437.169.199.299.339.389.419.092.081.201.142.326.185.145.05.268.036.371-.042.103-.077.208-.227.317-.448l.826.286ZM324.7781,9.3935l-.057-.021-2.377,4.057,1.751.605.683-4.641ZM323.5371,17.9415l.226-2.012-2.3-.796-1.067,1.722-2.316-.802,6.036-9.384,2.909,1.006-1.072,11.103-2.416-.837Z" style="fill:#090506;"/><path d="M334.3792,16.4624c.188-.43.33-.843.427-1.241.095-.397.139-.759.132-1.086-.009-.325-.073-.606-.191-.843-.12-.236-.306-.409-.558-.519-.254-.111-.51-.13-.769-.06-.259.07-.511.215-.756.43-.245.216-.479.495-.7.838-.223.342-.428.728-.616,1.158-.188.43-.334.846-.437,1.246s-.15.764-.142,1.09c.008.327.072.611.195.853.123.243.311.42.562.53.252.11.507.126.765.05.256-.078.507-.224.752-.44.245-.217.482-.496.71-.843.23-.345.438-.731.626-1.163M336.6812,17.4684c-.344.785-.746,1.463-1.208,2.035-.463.573-.957,1.016-1.485,1.331-.527.315-1.083.496-1.667.541-.582.046-1.168-.059-1.758-.317-.589-.257-1.065-.614-1.427-1.074-.362-.457-.606-.987-.734-1.588-.127-.601-.137-1.266-.031-1.993.106-.727.332-1.483.676-2.268.342-.786.74-1.46,1.194-2.025.453-.565.943-1.002,1.468-1.312.526-.31,1.079-.487,1.661-.529.579-.04,1.169.07,1.768.331.591.258,1.067.612,1.43,1.067.365.454.612.978.741,1.575.129.597.142,1.253.04,1.971-.103.718-.325,1.469-.668,2.255" style="fill:#090506;"/><polygon points="339.6565 25.1568 345.0155 15.7318 349.5685 18.3208 348.5025 20.1968 345.9865 18.7668 344.9335 20.6178 347.2505 21.9348 346.2505 23.6918 343.9335 22.3748 342.7835 24.3978 345.4595 25.9198 344.3695 27.8368 339.6565 25.1568" style="fill:#090506;"/><path d="M350.8887,31.9005c-.555-.031-1.143-.252-1.765-.662-.528-.348-.931-.782-1.205-1.3-.276-.519-.427-1.09-.455-1.713-.028-.625.065-1.284.281-1.98.215-.696.553-1.392,1.015-2.09.467-.707.98-1.297,1.539-1.773.559-.474,1.129-.82,1.712-1.034.582-.214,1.164-.295,1.746-.241.582.054,1.138.256,1.666.606.605.399,1.038.842,1.299,1.326.261.484.408.97.441,1.455l-2.079.756c-.018-.305-.083-.58-.196-.827-.113-.246-.313-.464-.603-.655-.273-.181-.557-.264-.854-.252-.295.013-.597.099-.903.256-.306.159-.607.388-.904.688-.296.299-.573.645-.832,1.036-.259.393-.468.781-.624,1.166-.157.386-.251.752-.279,1.101-.028.348.013.662.122.942.108.28.299.509.57.689.273.181.557.27.851.268.295-.001.564-.055.806-.164l.201,2.168c-.478.187-.994.265-1.55.234" style="fill:#090506;"/><path d="M360.5653,32.4941c.288-.371.526-.737.717-1.101.191-.362.321-.703.395-1.022.073-.317.08-.606.021-.865-.058-.257-.196-.472-.415-.64-.217-.168-.46-.251-.729-.246-.269.005-.547.083-.838.232-.29.149-.584.363-.884.642-.3.277-.593.603-.881.973-.288.372-.53.74-.728,1.103-.197.363-.332.704-.405,1.022-.072.319-.079.611-.019.876.058.266.197.483.414.651.219.169.461.248.728.236.268-.013.547-.093.837-.243.291-.15.589-.363.896-.643.307-.278.603-.604.891-.975M362.5503,34.0331c-.526.678-1.083,1.238-1.67,1.679-.588.443-1.176.752-1.765.927-.589.177-1.171.216-1.747.119-.576-.098-1.119-.344-1.627-.738s-.881-.858-1.121-1.391c-.238-.535-.345-1.108-.321-1.722.023-.614.177-1.262.458-1.941.281-.68.685-1.359,1.209-2.037.526-.678,1.078-1.235,1.655-1.673.578-.437,1.158-.742,1.744-.914.586-.173,1.165-.208,1.739-.106.572.103,1.118.353,1.634.755.508.394.882.855,1.124,1.385.243.529.353,1.098.332,1.71-.021.61-.169,1.251-.444,1.923-.276.671-.675,1.346-1.2,2.024" style="fill:#090506;"/><polygon points="364.2554 42.8802 366.8664 36.3182 366.8324 36.2872 362.4164 41.1932 360.8024 39.7122 368.1304 31.7222 370.1174 33.5432 367.4324 40.1632 367.4674 40.1942 371.9564 35.2302 373.5144 36.6592 366.1854 44.6502 364.2554 42.8802" style="fill:#090506;"/><path d="M379.4493,41.6051l-1.124-1.216,2.556-.483,1.351,1.462-2.783.237ZM375.6383,46.6881c.345-.319.642-.64.889-.966.248-.327.433-.641.557-.943s.179-.586.165-.85c-.016-.265-.117-.498-.304-.701-.186-.202-.413-.323-.679-.362-.266-.039-.555-.01-.865.091-.312.1-.638.262-.979.487-.341.224-.684.496-1.029.815-.345.318-.645.641-.899.967-.255.326-.444.639-.568.942-.126.302-.18.588-.165.86.014.271.116.51.302.712.187.201.414.32.68.352.266.032.554-.002.866-.102.311-.099.64-.262.989-.486.348-.225.694-.497,1.04-.816M377.3423,48.5331c-.629.582-1.271,1.043-1.924,1.381-.652.34-1.284.547-1.894.626-.61.076-1.19.019-1.743-.173-.553-.191-1.047-.524-1.483-.996-.437-.472-.73-.991-.876-1.558-.147-.565-.16-1.148-.035-1.751.126-.602.383-1.215.773-1.838.389-.625.898-1.228,1.529-1.81.629-.582,1.266-1.04,1.907-1.376.642-.337,1.266-.542,1.872-.615.607-.073,1.183-.013,1.733.182.547.195,1.045.533,1.487,1.014.437.472.731.988.882,1.551.151.562.167,1.143.046,1.742-.121.598-.373,1.205-.755,1.822-.383.618-.888,1.217-1.519,1.799" style="fill:#090506;"/><polygon points="379.2344 59.7291 385.2034 55.2831 385.1674 55.2351 378.1474 58.3061 377.0954 56.9301 381.9394 51.0111 381.9114 50.9751 376.0444 55.5561 374.6964 53.7921 383.3114 47.2081 385.1894 49.6651 380.7024 55.2931 380.7384 55.3421 387.3194 52.4511 389.3094 55.0551 380.6954 61.6391 379.2344 59.7291" style="fill:#090506;"/><rect x="381.8526" y="60.6356" width="10.843" height="2.4657" transform="translate(29.3499 222.1783) rotate(-33.2035)" style="fill:#090506;"/><path d="M387.718,72.8404c-.483-.275-.91-.735-1.282-1.38-.316-.548-.481-1.113-.495-1.7-.014-.585.106-1.163.361-1.733.255-.57.634-1.117,1.138-1.643.504-.524,1.119-.995,1.844-1.412.734-.422,1.457-.721,2.17-.895.713-.175,1.377-.228,1.994-.158.616.068,1.173.257,1.67.565.496.309.903.737,1.219,1.284.36.627.55,1.215.567,1.764.016.549-.07,1.05-.258,1.498l-2.197-.254c.121-.28.185-.556.195-.825.008-.271-.073-.556-.247-.857-.163-.282-.38-.483-.65-.604-.27-.122-.578-.179-.922-.175-.345.004-.717.073-1.116.208-.4.137-.802.321-1.209.555-.408.233-.767.488-1.08.762-.314.275-.562.561-.743.858-.181.299-.285.598-.313.895-.029.299.039.59.202.872.163.283.376.489.641.62.263.13.529.201.795.214l-.794,2.025c-.51-.047-1.007-.209-1.49-.484" style="fill:#090506;"/><path d="M398.171,74.9921l-.027-.055-4.554,1.159.799,1.673,3.782-2.777ZM391.217,80.1161l1.59-1.253-1.05-2.196-1.974.451-1.057-2.211,10.919-2.3,1.327,2.776-8.652,7.04-1.103-2.307Z" style="fill:#090506;"/></g></g></svg>