<svg width="333" height="333" viewBox="0 0 333 333" fill="none" xmlns="http://www.w3.org/2000/svg">
<rect width="332" height="332" fill="#252527"/>
<path d="M244.975 247.339C240.214 239.826 233.374 233.62 225.006 229.642L207.675 221.261H207.66L209.674 219.413C211.53 217.702 211.218 214.902 209.021 213.551L202.008 209.292C199.836 207.971 197.03 207.877 194.748 209.061L192.516 210.209L188.582 197.372C188.582 197.372 188.592 197.367 188.597 197.363C196.436 192.29 202.741 185.014 206.601 176.352H206.898C215.375 176.352 222.229 169.51 222.229 161.08C222.229 157.674 221.106 154.519 219.171 151.966H219.201L221.259 127.722C223.274 104.128 204.587 83.8627 180.822 83.8627H150.738C122.964 83.8627 113.358 70.8633 113.358 70.8633C111.641 79.8796 111.577 88.9107 113.309 97.1481C106.034 105.144 101.912 116.029 102.911 127.722L104.97 151.951C104.97 151.951 104.96 151.961 104.955 151.97C103.05 154.504 101.926 157.664 101.926 161.085C101.926 169.53 108.796 176.357 117.258 176.357H117.6C121.455 185.019 127.765 192.3 135.604 197.367H135.589L131.65 210.229L129.423 209.08C127.141 207.897 124.335 207.991 122.163 209.312L115.15 213.571C112.948 214.907 112.636 217.707 114.492 219.418L116.55 221.316H116.555L99.1749 229.652C87.5103 235.202 78.8003 245.067 74.5986 256.774C97.2993 278.485 128.121 291.829 162.08 291.829C196.04 291.829 226.862 278.485 249.562 256.774C248.374 253.462 246.83 250.307 244.97 247.349L244.975 247.339Z" fill="#444546"/>
<path d="M229.353 57.1318C229.707 56.5256 230.484 56.341 231.082 56.6816L231.086 56.6836C234.795 58.8815 238.439 61.2962 241.91 63.8496H241.909C242.47 64.2555 242.586 65.0464 242.172 65.6045C242.17 65.6074 242.168 65.6104 242.166 65.6133L242.165 65.6162C241.979 65.8875 241.703 66.048 241.418 66.1074V66.1396H241.168C240.914 66.1396 240.643 66.0601 240.411 65.8896V65.8887C237.014 63.3751 233.448 61.014 229.804 58.8594C229.195 58.5066 229.009 57.7315 229.352 57.1338L229.353 57.1318Z" fill="#FE6939" stroke="#FE6939" stroke-width="0.5"/>
<path d="M166.01 38.9219C184.781 38.9219 202.865 42.8926 219.759 50.7158L219.874 50.7754C220.433 51.0991 220.655 51.801 220.382 52.3857L220.379 52.3916C220.148 52.8507 219.686 53.1209 219.221 53.1211H219.215C219.05 53.121 218.855 53.0871 218.689 53.0039C202.124 45.3341 184.408 41.4434 166.005 41.4434C160.661 41.4434 155.283 41.7813 150.019 42.4502L150.02 42.4512C149.312 42.55 148.691 42.0422 148.599 41.3643L148.6 41.3633C148.502 40.657 149.012 40.0404 149.689 39.9492H149.691C155.057 39.2626 160.546 38.9219 166.01 38.9219Z" fill="#FE6939" stroke="#FE6939" stroke-width="0.5"/>
<path d="M123.826 46.0137C124.487 45.78 125.208 46.1318 125.441 46.7871C125.677 47.4478 125.322 48.165 124.666 48.3975L124.665 48.3984C108.366 54.0957 93.6235 62.9415 80.8955 74.7393L80.8877 74.7461L80.7256 74.5557L80.8867 74.7461C80.6428 74.9534 80.3391 75.0713 80.0371 75.0713H79.7871V75.041C79.5378 74.9905 79.2967 74.8645 79.1074 74.6621H79.1064C78.6373 74.1579 78.6573 73.3657 79.1611 72.8818L79.165 72.8779C85.5467 66.9706 92.5577 61.7054 99.9854 57.2158C107.527 52.6669 115.536 48.909 123.826 46.0146V46.0137Z" fill="#FE6939" stroke="#FE6939" stroke-width="0.5"/>
<path d="M70.2207 82.0352C70.6847 81.5185 71.4799 81.4517 72.0078 81.9219C72.5266 82.3839 72.5935 83.1763 72.1221 83.7031C52.0204 106.447 40.9434 135.671 40.9434 166.001C40.9434 168.989 41.0486 171.999 41.2637 174.972L41.3633 176.244V176.245C41.4189 176.949 40.8907 177.543 40.2002 177.604L40.1895 177.604H40.0996C39.4404 177.604 38.8914 177.101 38.8359 176.443V176.442C38.5533 172.999 38.4141 169.478 38.4141 166.001C38.4141 150.265 41.2604 134.898 46.8936 120.342C52.3233 106.284 60.1729 93.3973 70.2188 82.0371L70.2207 82.0352Z" fill="#FE6939" stroke="#FE6939" stroke-width="0.5"/>
<path d="M48.8213 213.11C49.4249 212.856 50.1124 213.111 50.4189 213.67L50.4746 213.785L50.4756 213.787C51.4435 216.114 52.5002 218.44 53.6211 220.708L53.6729 220.826C53.8971 221.427 53.6179 222.107 53.0381 222.394L53.0205 222.401C53.008 222.406 52.9949 222.409 52.9824 222.414L53.0869 222.519H52.4814C52.0166 222.518 51.5695 222.267 51.3516 221.816C50.2111 219.51 49.1311 217.124 48.1445 214.759C47.8717 214.116 48.1826 213.38 48.8213 213.11Z" fill="#FE6939" stroke="#FE6939" stroke-width="0.5"/>
<path d="M57.1172 229.845C57.7114 229.5 58.4891 229.669 58.8467 230.271C64.5164 239.648 71.4366 248.243 79.3838 255.85L79.4727 255.944C79.889 256.433 79.8776 257.161 79.4199 257.634L79.417 257.637C79.2315 257.821 79.0004 257.944 78.7578 257.994V258.025H78.5078C78.1972 258.025 77.8845 257.907 77.6357 257.678L77.6328 257.675C69.5312 249.916 62.4752 241.144 56.6885 231.577C56.3184 230.975 56.5151 230.198 57.1162 229.846L57.1172 229.845Z" fill="#FE6939" stroke="#FE6939" stroke-width="0.5"/>
<path d="M102.541 228.486C103.13 228.198 103.83 228.421 104.167 228.971L104.229 229.086L104.231 229.089C104.521 229.708 104.268 230.464 103.628 230.771H103.627C95.0074 234.87 87.9439 241.416 83.1885 249.659L83.1875 249.658C82.9512 250.082 82.5251 250.294 82.0859 250.296V250.297H82.0811V250.296C81.8651 250.295 81.6545 250.24 81.459 250.124V250.123C80.8594 249.774 80.6407 249.003 80.9941 248.397C85.9981 239.707 93.4542 232.815 102.541 228.485V228.486Z" fill="#FE6939" stroke="#FE6939" stroke-width="0.5"/>
<path d="M125.407 208.218C126.009 207.851 126.786 208.044 127.141 208.641L127.203 208.755C127.484 209.337 127.276 210.038 126.715 210.369L119.703 214.629C118.966 215.076 118.517 215.769 118.446 216.51V216.511C118.376 217.235 118.652 217.938 119.242 218.48L119.243 218.481L121.302 220.379L121.303 220.38C121.61 220.667 121.753 221.08 121.691 221.487L121.69 221.486C121.633 221.897 121.357 222.262 120.988 222.439H120.987L108.304 228.517C108.137 228.625 107.931 228.656 107.766 228.656H107.516V228.617C107.142 228.54 106.811 228.294 106.623 227.935L106.621 227.931C106.31 227.304 106.585 226.549 107.204 226.244L107.207 226.243L118.226 220.96L117.529 220.323L117.528 220.322C116.365 219.246 115.788 217.771 115.935 216.26C116.081 214.696 116.992 213.321 118.395 212.476L125.407 208.217V208.218Z" fill="#FE6939" stroke="#FE6939" stroke-width="0.5"/>
<path d="M120.98 175.183C121.583 174.911 122.272 175.15 122.593 175.705L122.652 175.819L122.653 175.821C126.263 183.93 132.063 190.833 139.467 195.813L140.188 196.289L140.189 196.29C140.658 196.597 140.868 197.179 140.713 197.704L140.712 197.706L136.778 210.553L136.774 210.562C136.583 211.105 136.089 211.456 135.559 211.458V211.459H135.554V211.458C135.439 211.457 135.309 211.44 135.19 211.403V211.404C134.53 211.207 134.14 210.495 134.351 209.827L138.013 197.873C130.244 192.63 124.147 185.388 120.342 176.849C120.051 176.206 120.344 175.469 120.98 175.183Z" fill="#FE6939" stroke="#FE6939" stroke-width="0.5"/>
<path d="M110.293 171.906C110.741 171.387 111.535 171.305 112.078 171.771C114.612 173.911 117.846 175.103 121.177 175.104H121.504C122.183 175.104 122.749 175.645 122.768 176.343C122.786 177.051 122.218 177.606 121.524 177.624L121.507 177.625L121.488 177.623C121.382 177.61 121.287 177.609 121.157 177.609H120.553L120.568 177.593C116.851 177.46 113.273 176.087 110.43 173.691L110.429 173.689C109.906 173.242 109.823 172.448 110.293 171.906Z" fill="#FE6939" stroke="#FE6939" stroke-width="0.5"/>
<path d="M107.865 151.217C108.274 150.655 109.074 150.54 109.634 150.959C110.2 151.368 110.315 152.17 109.89 152.729C108.067 155.159 107.115 158.044 107.115 161.085C107.115 163.07 107.528 164.997 108.325 166.799L108.373 166.921C108.578 167.532 108.282 168.197 107.686 168.466L107.676 168.471L107.667 168.474C107.527 168.524 107.354 168.567 107.177 168.567C106.7 168.567 106.227 168.303 106.028 167.827L105.855 167.426C105.019 165.413 104.586 163.291 104.586 161.085C104.586 157.502 105.726 154.089 107.865 151.217Z" fill="#FE6939" stroke="#FE6939" stroke-width="0.5"/>
<path d="M106.688 126.453C107.343 126.402 107.913 126.842 108.032 127.47L108.05 127.598V127.599L109.534 144.955V144.957C109.588 145.642 109.09 146.223 108.437 146.308C108.406 146.319 108.381 146.325 108.366 146.327C108.332 146.332 108.297 146.331 108.285 146.331C107.643 146.331 107.078 145.83 107.022 145.171L105.537 127.813V127.812C105.482 127.11 106.007 126.514 106.685 126.453H106.688Z" fill="#FE6939" stroke="#FE6939" stroke-width="0.5"/>
<path d="M116.976 69.6299C117.467 69.5161 117.966 69.7165 118.268 70.1123L118.272 70.1182L118.276 70.125C118.273 70.1202 119.268 71.4349 121.521 73.2119C123.769 74.9856 127.268 77.2168 132.27 79.0508H132.269C132.929 79.2857 133.259 80.0192 133.026 80.6592L133.027 80.6602C132.792 81.3213 132.052 81.6513 131.41 81.418H131.409C124.474 78.8713 120.241 75.6373 118.068 73.5908C116.85 81.4512 116.923 89.2224 118.311 96.2266L118.452 96.916V96.917C118.531 97.297 118.438 97.7281 118.157 98.0264L118.156 98.0254C113.923 102.694 110.837 108.332 109.239 114.359L109.237 114.366L109.234 114.374C109.063 114.891 108.566 115.274 107.998 115.274H107.393L107.495 115.171C106.925 114.93 106.613 114.297 106.776 113.697C108.429 107.478 111.561 101.647 115.85 96.7861C114.244 88.6929 114.298 79.6691 116.012 70.6211L116.013 70.6182C116.109 70.1434 116.472 69.7355 116.967 69.6318V69.6309H116.969C116.971 69.6304 116.973 69.6293 116.976 69.6289V69.6299Z" fill="#FE6939" stroke="#FE6939" stroke-width="0.5"/>
<path d="M148.814 82.4072L148.813 82.4082C150.696 82.5456 152.654 82.6084 154.646 82.6084H159.922C160.623 82.6084 161.187 83.1682 161.187 83.8691C161.186 84.5748 160.618 85.1152 159.922 85.1152H154.642C152.606 85.1152 150.572 85.0356 148.633 84.9121H148.629C147.933 84.8574 147.401 84.2584 147.464 83.5654C147.52 82.8715 148.122 82.3451 148.814 82.4072Z" fill="#FE6939" stroke="#FE6939" stroke-width="0.5"/>
<path d="M184.722 82.5938C197.366 82.5938 209.204 88.2124 217.199 97.9854H217.2C217.653 98.529 217.553 99.3292 217.026 99.7549L217.022 99.7578C216.924 99.834 216.82 99.8932 216.712 99.9385L216.82 100.047H216.216C215.855 100.047 215.482 99.8975 215.24 99.5791V99.5801C207.731 90.3857 196.608 85.1153 184.722 85.1152H167.188C166.486 85.1152 165.923 84.5554 165.923 83.8545C165.923 83.1535 166.486 82.5938 167.188 82.5938H184.722Z" fill="#FE6939" stroke="#FE6939" stroke-width="0.5"/>
<path d="M219.732 103.801C220.336 103.47 221.113 103.681 221.448 104.303L221.881 105.111C222.73 106.739 223.469 108.425 224.096 110.139L224.4 110.997L224.401 111C224.616 111.655 224.267 112.376 223.603 112.593L223.601 112.594C223.557 112.608 223.51 112.616 223.464 112.625V112.654H223.214C222.687 112.654 222.204 112.322 222.01 111.808L222.006 111.799V111.798C221.369 109.904 220.575 108.048 219.639 106.269L219.229 105.511C218.895 104.909 219.11 104.135 219.732 103.801Z" fill="#FE6939" stroke="#FE6939" stroke-width="0.5"/>
<path d="M225.105 128.36L225.104 128.361C225.764 128.414 226.251 128.948 226.259 129.591L226.254 129.721L224.349 152.071L224.348 152.07C224.307 152.738 223.733 153.217 223.1 153.217H222.996L222.986 153.216C222.283 153.16 221.774 152.555 221.836 151.855L223.741 129.505C223.798 128.803 224.406 128.3 225.105 128.36Z" fill="#FE6939" stroke="#FE6939" stroke-width="0.5"/>
<path d="M226.148 159.809C226.85 159.809 227.413 160.368 227.413 161.069L227.407 161.495C227.166 170.41 219.819 177.601 210.817 177.602H210.469C209.775 177.583 209.207 177.022 209.226 176.319C209.244 175.628 209.81 175.081 210.49 175.081H210.817C218.564 175.081 224.885 168.798 224.885 161.069C224.885 160.368 225.447 159.809 226.148 159.809Z" fill="#FE6939" stroke="#FE6939" stroke-width="0.5"/>
<path d="M205.688 182.49C206.095 181.994 206.812 181.882 207.357 182.226C207.952 182.6 208.099 183.394 207.732 183.972L207.729 183.975C203.915 189.756 199.02 194.603 193.182 198.388L193.181 198.387C192.973 198.532 192.74 198.613 192.486 198.614V198.615H192.481V198.614C192.077 198.613 191.668 198.418 191.417 198.035L191.351 197.923C191.049 197.351 191.24 196.648 191.784 196.288L191.786 196.287C197.33 192.697 201.977 188.087 205.61 182.595L205.688 182.49Z" fill="#FE6939" stroke="#FE6939" stroke-width="0.5"/>
<path d="M193.879 201.468C194.499 201.349 195.144 201.707 195.332 202.335L197.18 208.379L198.067 207.924L198.32 207.798C200.954 206.542 204.078 206.694 206.571 208.214H206.572C207.177 208.583 207.349 209.358 206.997 209.941L206.996 209.943C206.626 210.546 205.849 210.716 205.265 210.367L205.262 210.366C203.481 209.279 201.12 209.202 199.247 210.173H199.246L197.015 211.321L197.005 211.326L196.994 211.331C196.97 211.341 196.945 211.348 196.92 211.357L197.025 211.463H196.42C196.244 211.463 196.084 211.425 195.937 211.366V211.365C195.578 211.226 195.326 210.932 195.212 210.573L195.211 210.571L192.915 203.073L192.914 203.071C192.718 202.416 193.084 201.697 193.756 201.498L193.879 201.468Z" fill="#FE6939" stroke="#FE6939" stroke-width="0.5"/>
<path d="M211.821 212.916C212.169 212.351 212.873 212.166 213.441 212.433L213.554 212.492L213.812 212.658C214.984 213.457 215.755 214.653 215.976 215.986L216.015 216.274V216.276C216.152 217.692 215.655 219.091 214.632 220.136L214.42 220.34L213.772 220.929L229.428 228.497C232.328 229.877 235.116 231.557 237.69 233.473L238.203 233.858L238.205 233.86C238.743 234.281 238.867 235.078 238.436 235.626L238.435 235.625C238.23 235.927 237.906 236.09 237.566 236.119L237.556 236.131H237.452C237.185 236.131 236.914 236.051 236.681 235.88L236.676 235.877C234.258 234.02 231.637 232.409 228.9 231.055L228.352 230.787L211.005 222.406V222.405C210.632 222.23 210.364 221.863 210.303 221.454L210.302 221.451C210.247 221.054 210.378 220.621 210.696 220.342L212.707 218.497C213.292 217.955 213.569 217.251 213.503 216.526L213.485 216.387C213.383 215.738 212.995 215.149 212.381 214.732L212.246 214.646C211.641 214.277 211.469 213.502 211.82 212.918L211.821 212.916Z" fill="#FE6939" stroke="#FE6939" stroke-width="0.5"/>
<path d="M275.174 226.781C275.52 226.189 276.277 225.946 276.891 226.302C277.483 226.645 277.728 227.398 277.373 228.011L277.374 228.012C271.211 238.967 263.465 248.954 254.347 257.682L254.343 257.686C254.112 257.897 253.79 258.032 253.471 258.032H253.221V257.997C253.21 257.995 253.199 257.994 253.189 257.992L253.18 257.99C252.776 257.893 252.424 257.59 252.285 257.195C251.21 254.194 249.819 251.287 248.137 248.564L247.797 248.022C246.925 246.659 245.98 245.315 244.985 244.045C244.559 243.503 244.65 242.703 245.202 242.277C245.745 241.854 246.545 241.945 246.973 242.494L247.75 243.512C248.518 244.541 249.254 245.603 249.937 246.685H249.936C251.515 249.175 252.863 251.808 253.967 254.541C262.313 246.315 269.439 236.984 275.172 226.785L275.174 226.781Z" fill="#FE6939" stroke="#FE6939" stroke-width="0.5"/>
<path d="M266.494 89.75C267.05 89.3483 267.833 89.4427 268.26 90.0029L268.261 90.0049C276.319 100.743 282.577 112.617 286.876 125.252C291.319 138.342 293.57 152.039 293.57 165.987C293.57 182.504 290.441 198.557 284.263 213.736L284.261 213.74C284.048 214.238 283.567 214.525 283.086 214.527V214.528H283.081V214.527C282.919 214.527 282.765 214.488 282.62 214.433L282.618 214.432C281.971 214.177 281.662 213.439 281.912 212.788L281.914 212.783L282.474 211.387C288.163 196.932 291.046 181.672 291.046 165.987C291.046 138.904 282.478 113.155 266.238 91.5176L266.235 91.5146C265.831 90.9596 265.927 90.178 266.49 89.7529L266.494 89.75Z" fill="#FE6939" stroke="#FE6939" stroke-width="0.5"/>
<path d="M125.167 115.338C125.709 114.92 126.505 114.984 126.938 115.539H126.937C130.068 119.446 133.901 122.642 138.335 125.036H138.334C138.959 125.369 139.174 126.145 138.841 126.748L138.839 126.752C138.608 127.151 138.186 127.404 137.731 127.404H137.481V127.37C137.362 127.345 137.245 127.305 137.135 127.25L137.128 127.246C132.397 124.697 128.298 121.284 124.966 117.106L124.965 117.104C124.543 116.568 124.61 115.768 125.167 115.338Z" fill="#FE6939" stroke="#FE6939" stroke-width="0.5"/>
<path d="M144.861 129.164C145.047 128.545 145.671 128.17 146.308 128.281L146.435 128.31L146.438 128.311C151.093 129.673 156.271 130.371 161.838 130.371H181.01C181.711 130.371 182.274 130.931 182.274 131.632C182.274 132.338 181.686 132.893 180.995 132.893H161.823C156.028 132.893 150.614 132.175 145.718 130.737H145.717C145.056 130.54 144.67 129.846 144.86 129.168L144.861 129.164Z" fill="#FE6939" stroke="#FE6939" stroke-width="0.5"/>
<path d="M202.755 130.367L203.131 130.372C207.014 130.474 210.721 132.154 213.365 135.002L213.366 135.003C216.049 137.914 217.417 141.843 217.128 145.785C219.91 146.927 222.323 148.782 224.126 151.196L224.128 151.199C224.53 151.751 224.441 152.551 223.87 152.964L223.864 152.968C223.699 153.08 223.528 153.152 223.35 153.188V153.218H223.1C222.712 153.218 222.34 153.045 222.089 152.716L222.088 152.713C220.502 150.584 218.368 148.974 215.9 148.022H215.775C215.425 148.022 215.075 147.871 214.843 147.615V147.614C214.607 147.359 214.493 147.012 214.511 146.67L214.512 146.662L214.591 145.716C214.867 142.379 213.782 139.184 211.504 136.712C209.225 134.244 206.12 132.889 202.755 132.889H189.888C189.186 132.889 188.623 132.329 188.623 131.628C188.623 130.927 189.186 130.367 189.888 130.367H202.755Z" fill="#FE6939" stroke="#FE6939" stroke-width="0.5"/>
<path d="M119.456 120.415C119.904 119.877 120.699 119.795 121.242 120.244C121.782 120.69 121.864 121.482 121.413 122.024L121.414 122.025C117.365 126.902 115.544 133.041 116.269 139.333L117.109 146.608L117.11 146.614L117.116 146.722C117.124 147.256 116.807 147.744 116.29 147.931L116.291 147.932C113.743 148.881 111.534 150.528 109.89 152.699L109.888 152.701C109.626 153.039 109.261 153.213 108.874 153.216V153.217H108.864V153.216C108.597 153.214 108.345 153.134 108.117 152.967V152.966C107.553 152.557 107.439 151.758 107.863 151.199C109.584 148.898 111.854 147.096 114.474 145.941L113.748 139.622C112.944 132.648 114.962 125.816 119.455 120.415H119.456Z" fill="#FE6939" stroke="#FE6939" stroke-width="0.5"/>
<path d="M116.947 95.9082C117.617 95.775 118.306 96.1911 118.443 96.8828H118.442C119.917 103.898 122.648 110.008 126.554 115.048L126.935 115.533L126.937 115.534C127.359 116.071 127.291 116.872 126.734 117.302L126.733 117.301C126.502 117.492 126.231 117.586 125.958 117.586C125.593 117.586 125.221 117.433 124.967 117.118L124.966 117.117C120.613 111.671 117.584 105.037 115.969 97.4023V97.4004C115.834 96.7303 116.254 96.044 116.947 95.9072V95.9082Z" fill="#FE6939" stroke="#FE6939" stroke-width="0.5"/>
<path d="M115.688 145.509C116.383 145.431 117.009 145.913 117.085 146.615L118.881 162.119H118.882C119.069 163.757 119.349 165.414 119.718 167.021C119.872 167.698 119.447 168.379 118.763 168.533C118.695 168.549 118.601 168.568 118.494 168.568V168.569H118.489V168.568C117.91 168.566 117.386 168.167 117.266 167.581L117.128 166.944C116.815 165.454 116.564 163.926 116.386 162.409V162.408L114.574 146.905V146.904C114.494 146.207 114.982 145.582 115.688 145.508V145.509Z" fill="#FE6939" stroke="#FE6939" stroke-width="0.5"/>
<path d="M216.142 145.508C216.843 145.508 217.406 146.068 217.406 146.769C217.406 147.154 217.228 147.489 216.96 147.72C216.804 149.524 216.625 151.481 216.44 153.539C216.384 154.198 215.833 154.684 215.191 154.684H215.073C214.365 154.628 213.862 154.003 213.923 153.308V153.307C214.141 150.926 214.343 148.688 214.517 146.653C214.573 145.991 215.126 145.508 215.78 145.508H216.142Z" fill="#FE6939" stroke="#FE6939" stroke-width="0.5"/>
<path d="M214.466 161.027H214.468C215.172 161.108 215.652 161.731 215.578 162.421V162.423C215.035 167.111 213.838 171.672 212.005 175.99C212.04 176.096 212.066 176.217 212.066 176.354L212.062 176.481C212.013 177.111 211.471 177.606 210.816 177.606H210.475C210.042 177.606 209.649 177.37 209.424 177.024C209.196 176.675 209.152 176.23 209.326 175.839C211.251 171.489 212.526 166.88 213.067 162.135C213.148 161.431 213.775 160.954 214.466 161.027Z" fill="#FE6939" stroke="#FE6939" stroke-width="0.5"/>
<path d="M134.418 209.614C134.729 209.035 135.414 208.794 136.009 209.023L136.126 209.075L136.128 209.076L142.171 212.188L142.174 212.188C142.794 212.519 143.029 213.274 142.715 213.893L142.714 213.896C142.479 214.344 142.048 214.572 141.586 214.572C141.394 214.572 141.202 214.535 141.005 214.438L141.002 214.436L134.959 211.325L134.956 211.323C134.336 210.993 134.101 210.238 134.415 209.619L134.418 209.614Z" fill="#FE6939" stroke="#FE6939" stroke-width="0.5"/>
<path d="M146.048 215.618C146.359 215.038 147.044 214.798 147.639 215.027L147.756 215.079L147.759 215.08V215.081L166.574 224.802L166.577 224.804C167.197 225.134 167.432 225.889 167.118 226.508L167.114 226.516C166.882 226.935 166.442 227.187 165.989 227.187C165.797 227.187 165.605 227.15 165.408 227.052L165.404 227.05L146.589 217.329L146.586 217.327C145.966 216.997 145.731 216.242 146.045 215.623L146.048 215.618Z" fill="#FE6939" stroke="#FE6939" stroke-width="0.5"/>
<path d="M195.851 209.061C196.478 208.728 197.233 208.986 197.562 209.598C197.898 210.225 197.638 210.979 197.023 211.307L197.021 211.309L173.008 223.721L173.005 223.723C172.808 223.821 172.615 223.857 172.423 223.857C171.954 223.857 171.53 223.604 171.299 223.187L171.298 223.184C170.961 222.556 171.222 221.801 171.836 221.474L171.838 221.473L195.851 209.06V209.061Z" fill="#FE6939" stroke="#FE6939" stroke-width="0.5"/>
<path d="M191.8 196.294C192.389 195.905 193.165 196.082 193.55 196.66C193.941 197.249 193.763 198.024 193.183 198.407L193.181 198.408C188.66 201.331 183.721 203.501 178.523 204.849L178.512 204.852L178.499 204.854C178.415 204.867 178.314 204.885 178.198 204.886V204.887H178.193V204.886C177.634 204.884 177.125 204.515 176.972 203.937V203.935C176.799 203.258 177.207 202.574 177.884 202.402L178.807 202.155C183.406 200.873 187.78 198.904 191.8 196.293V196.294Z" fill="#FE6939" stroke="#FE6939" stroke-width="0.5"/>
<path d="M172.247 203.501C172.95 203.404 173.572 203.891 173.665 204.586L173.677 204.717C173.702 205.366 173.228 205.917 172.574 206.003C170.412 206.285 168.185 206.423 165.989 206.423V206.424H165.984V206.423C165.285 206.42 164.725 205.862 164.725 205.163C164.725 204.462 165.288 203.902 165.989 203.902C168.087 203.902 170.184 203.765 172.247 203.5V203.501Z" fill="#FE6939" stroke="#FE6939" stroke-width="0.5"/>
<path d="M138.424 196.652C138.809 196.074 139.585 195.897 140.174 196.285L141.148 196.9C143.438 198.308 145.841 199.52 148.325 200.507H148.324C148.972 200.761 149.281 201.5 149.03 202.15L149.028 202.154C148.865 202.556 148.517 202.834 148.111 202.917V202.951H147.861C147.698 202.951 147.543 202.912 147.396 202.855L147.393 202.854C144.394 201.651 141.509 200.164 138.793 198.4L138.791 198.399C138.21 198.016 138.032 197.241 138.424 196.652Z" fill="#FE6939" stroke="#FE6939" stroke-width="0.5"/>
<path d="M77.5957 255.873C78.0815 255.371 78.8777 255.351 79.3838 255.837L80.458 256.853C91.2527 266.944 103.586 274.955 117.15 280.696L118.511 281.263L118.513 281.264C119.148 281.531 119.467 282.263 119.19 282.908L119.191 282.909C118.993 283.398 118.526 283.687 118.024 283.687C117.866 283.686 117.691 283.649 117.541 283.59L117.539 283.589C102.693 277.514 89.2547 268.785 77.6318 257.657C77.1271 257.173 77.1075 256.378 77.5957 255.873Z" fill="#FE6939" stroke="#FE6939" stroke-width="0.5"/>
<path d="M125.3 285.146C125.516 284.488 126.232 284.117 126.901 284.352L126.9 284.353C139.474 288.479 152.64 290.559 166.01 290.559C166.711 290.559 167.273 291.119 167.273 291.819C167.273 292.526 166.685 293.08 165.994 293.08H165.989C152.775 293.08 139.765 291.077 127.302 287.126L126.098 286.738C125.441 286.524 125.068 285.813 125.301 285.146H125.3Z" fill="#FE6939" stroke="#FE6939" stroke-width="0.5"/>
<path d="M200.607 285.715C201.283 285.519 201.992 285.91 202.166 286.593H202.164C202.356 287.264 201.966 287.961 201.288 288.137L201.289 288.138C192.418 290.676 183.22 292.252 173.958 292.83H173.897V292.829C173.242 292.826 172.676 292.31 172.639 291.647V291.646C172.602 290.95 173.125 290.353 173.823 290.31C182.906 289.749 191.915 288.198 200.607 285.714V285.715Z" fill="#FE6939" stroke="#FE6939" stroke-width="0.5"/>
<path d="M252.59 255.853C253.096 255.367 253.892 255.387 254.378 255.889C254.836 256.362 254.847 257.09 254.431 257.578L254.342 257.673C244.985 266.618 234.379 274.066 222.82 279.815L222.813 279.818C222.716 279.864 222.612 279.893 222.508 279.911V279.94H222.258C221.793 279.94 221.345 279.689 221.127 279.237L221.128 279.236C220.822 278.616 221.073 277.862 221.691 277.554C233.022 271.921 243.428 264.624 252.59 255.853Z" fill="#FE6939" stroke="#FE6939" stroke-width="0.5"/>
<path d="M205.639 224.998C206.142 224.533 206.963 224.547 207.432 225.082H207.431C207.892 225.583 207.878 226.393 207.347 226.859L207.348 226.86L183.96 248.354L183.952 248.359C183.71 248.566 183.421 248.686 183.103 248.686H182.853V248.656C182.598 248.606 182.363 248.479 182.173 248.275H182.172C181.706 247.775 181.718 246.959 182.25 246.491L205.639 224.998Z" fill="#FE6939" stroke="#FE6939" stroke-width="0.5"/>
<path d="M165.217 224.928C165.753 224.512 166.55 224.579 166.981 225.145H166.982L179.83 241.289V241.29C180.248 241.821 180.185 242.611 179.628 243.044L179.629 243.045C179.397 243.256 179.112 243.326 178.837 243.326C178.472 243.326 178.099 243.174 177.845 242.843L164.997 226.698V226.697C164.574 226.16 164.642 225.357 165.217 224.928Z" fill="#FE6939" stroke="#FE6939" stroke-width="0.5"/>
<path d="M164.997 225.15C165.424 224.609 166.224 224.512 166.768 224.937C167.311 225.361 167.41 226.16 166.982 226.703V226.704L149.869 248.197C149.614 248.529 149.241 248.681 148.876 248.681C148.598 248.681 148.329 248.58 148.104 248.415L148.099 248.411C147.555 247.986 147.455 247.188 147.883 246.645L147.884 246.644L164.997 225.15Z" fill="#FE6939" stroke="#FE6939" stroke-width="0.5"/>
<path d="M130.832 230.825C131.302 230.32 132.095 230.286 132.615 230.743L132.619 230.747L143.923 241.134L144.013 241.226C144.433 241.7 144.436 242.426 144.005 242.913L144.001 242.918C143.812 243.12 143.568 243.246 143.32 243.297V243.328H143.07C142.763 243.328 142.449 243.212 142.214 242.996L130.91 232.608C130.403 232.14 130.368 231.348 130.828 230.829L130.832 230.825Z" fill="#FE6939" stroke="#FE6939" stroke-width="0.5"/>
<path d="M119.529 220.45C119.999 219.945 120.792 219.911 121.312 220.368L121.316 220.372L128.403 226.889L128.404 226.89C128.911 227.358 128.946 228.15 128.486 228.669L128.481 228.674C128.292 228.877 128.055 229.003 127.802 229.053V229.083H127.552C127.282 229.083 127.008 228.994 126.786 228.827L126.694 228.751L119.607 222.233C119.1 221.765 119.065 220.973 119.525 220.454L119.529 220.45Z" fill="#FE6939" stroke="#FE6939" stroke-width="0.5"/>
<path d="M116.294 96.2686C116.746 95.7628 117.524 95.7092 118.047 96.1504H118.046C118.59 96.601 118.647 97.3922 118.22 97.9277L118.211 97.9385L118.201 97.9482C118.171 97.9779 118.136 98.0123 118.106 98.042L118.101 98.0488L117.931 97.8652L118.1 98.0488C117.848 98.2808 117.52 98.3965 117.213 98.3965C116.883 98.3965 116.571 98.278 116.319 98.0273C115.833 97.543 115.83 96.756 116.294 96.2686Z" fill="#FE6939" stroke="#FE6939" stroke-width="0.5"/>
<path d="M165.989 246.156C166.691 246.156 167.254 246.716 167.254 247.417V291.818C167.254 292.519 166.69 293.078 165.989 293.078C165.288 293.078 164.725 292.519 164.725 291.818V247.417C164.725 246.716 165.288 246.156 165.989 246.156Z" fill="#FE6939" stroke="#FE6939" stroke-width="0.5"/>
<path d="M165.989 233.082C166.691 233.082 167.254 233.642 167.254 234.343V239.973C167.254 240.673 166.69 241.232 165.989 241.232C165.288 241.232 164.725 240.673 164.725 239.973V234.343C164.725 233.642 165.288 233.082 165.989 233.082Z" fill="#FE6939" stroke="#FE6939" stroke-width="0.5"/>
</svg>
